<svg width="76" height="69" viewBox="0 0 76 69" fill="none" xmlns="http://www.w3.org/2000/svg">
<g id="Brain" clip-path="url(#clip0_829_533)">
<path id="icon" fill-rule="evenodd" clip-rule="evenodd" d="M23.6522 4.05957C27.9611 4.05957 31.8197 5.82015 34.412 8.59642V31.0855C34.3211 32.0962 33.6923 34.2018 32.2485 36.1241C30.8211 38.0246 28.8244 39.4655 26.0789 39.7453C24.2271 39.934 22.8935 41.4576 23.1002 43.1483C23.3069 44.8391 24.9755 46.0567 26.8273 45.868C29.9146 45.5534 32.4233 44.445 34.412 42.9877V61.0726C31.4536 64.565 26.8192 66.8134 21.6097 66.8134C13.4887 66.8134 6.76559 61.3491 5.60978 54.2278C6.2253 52.4989 7.22803 51.0055 8.18843 50.3131C9.6508 49.2588 9.90023 47.3218 8.74556 45.9866C7.59093 44.6514 5.46937 44.4237 4.00704 45.478C3.50946 45.8367 3.0436 46.2423 2.60977 46.684C0.959093 43.379 0 39.2745 0 35.6531C0 30.8506 1.68667 26.1351 4.43619 22.6618C5.03202 23.7124 5.74424 24.6358 6.50821 25.4304C8.49946 27.5017 10.9865 28.8433 12.9255 29.247C14.7422 29.6251 16.5506 28.587 16.9647 26.9284C17.3789 25.2697 16.242 23.6185 14.4253 23.2404C14.1166 23.1761 12.8148 22.6516 11.5792 21.3663C10.5857 20.3329 9.72604 18.8974 9.51892 16.9777L9.51887 16.9639C9.51887 9.83704 15.8466 4.05957 23.6522 4.05957ZM53.9619 66.8134C48.7523 66.8134 44.1178 64.5645 41.1594 61.0726V32.2744C42.5427 33.1876 44.0091 33.9369 45.4333 34.4856C47.15 35.1469 49.1289 34.4124 49.8532 32.845C50.5776 31.2776 49.7731 29.4708 48.0564 28.8095C45.0756 27.6611 42.3232 25.4327 41.36 23.3819C41.3009 23.2562 41.2338 23.136 41.1594 23.0214V8.59662C43.7518 5.8202 47.6104 4.05957 51.9194 4.05957C59.7252 4.05957 66.0527 9.83704 66.0527 16.9639C66.0527 17.4366 66.0246 17.9033 65.9706 18.3628L65.982 18.3685C65.6413 20.3886 64.7388 22.2515 63.7699 23.124C62.4431 24.3185 62.4279 26.2688 63.7364 27.4802C65.0443 28.6916 67.1808 28.7053 68.5077 27.5108C69.8123 26.3358 70.8072 24.7978 71.5149 23.1579C74.0389 26.577 75.5714 31.0755 75.5714 35.6531C75.5714 41.0221 73.4635 47.4529 70.1189 50.766L69.9964 50.7591C69.3055 50.7138 68.4181 50.559 67.4259 50.2184C65.4686 49.5457 63.1005 48.1469 61.038 45.4126C59.981 44.0116 57.8802 43.658 56.3461 44.623C54.8114 45.588 54.4244 47.5061 55.4808 48.9071C58.3455 52.7044 61.8369 54.8804 65.0492 55.9839C66.4813 56.4763 67.9171 56.7725 69.2488 56.8838C67.0545 62.6636 61.039 66.8134 53.9619 66.8134Z" fill="black"/>
</g>
<defs>
<clipPath id="clip0_829_533">
<rect width="75.5714" height="69" fill="white"/>
</clipPath>
</defs>
</svg>
