<svg width="50" height="52" viewBox="0 0 50 52" fill="none" xmlns="http://www.w3.org/2000/svg">
<path id="Facebook Logo Vector" d="M47.2403 0.859772H2.75951C1.23513 0.859772 0 2.12061 0 3.67629V49.076C0 50.6315 1.23532 51.8925 2.75951 51.8925H26.7064V32.13H20.1905V24.4281H26.7064V18.7482C26.7064 12.1566 30.6508 8.56744 36.4119 8.56744C39.1714 8.56744 41.5433 8.7772 42.2344 8.87089V15.7594L38.2388 15.7613C35.1056 15.7613 34.499 17.2809 34.499 19.5108V24.4281H41.9714L40.9985 32.13H34.4991V51.8925H47.2405C48.7645 51.8925 50 50.6313 50 49.076V3.67629C49.9998 2.12042 48.7643 0.859772 47.2403 0.859772Z" fill="white"/>
</svg>
