<svg width="50" height="52" viewBox="0 0 50 52" fill="none" xmlns="http://www.w3.org/2000/svg">
<path id="IG Logo Vector" d="M16.6663 26.3919C16.6582 21.6951 20.3826 17.8797 24.9834 17.8715C29.5851 17.8623 33.3239 21.662 33.3329 26.3597C33.3418 31.0572 29.6174 34.8718 25.0149 34.8809C20.4142 34.8899 16.6752 31.0895 16.6663 26.3919ZM12.1636 26.4009C12.1773 33.6374 17.9356 39.4907 25.0239 39.4767C32.113 39.4626 37.8511 33.587 37.8373 26.3505C37.8236 19.1165 32.0645 13.2599 24.9745 13.2739C17.8861 13.288 12.1498 19.1661 12.1636 26.4009ZM35.3183 12.7366C35.3215 14.4263 36.6676 15.7947 38.3234 15.7914C39.9797 15.7881 41.3203 14.4148 41.3179 12.725C41.3147 11.0352 39.9685 9.66604 38.312 9.66932C36.6556 9.67261 35.3151 11.0466 35.3183 12.7366ZM14.9378 47.1638C12.5005 47.0555 11.1769 46.6421 10.2949 46.2958C9.12683 45.8344 8.29334 45.2813 7.41609 44.3926C6.5405 43.5005 5.99695 42.6523 5.54089 41.4625C5.19831 40.5622 4.78601 39.213 4.67175 36.7253C4.54782 34.0359 4.5195 33.2291 4.50739 26.4159C4.49441 19.6043 4.51872 18.7974 4.63376 16.1055C4.73816 13.6195 5.14568 12.2669 5.48425 11.3675C5.9362 10.1737 6.47654 9.32455 7.3489 8.42919C8.22283 7.53392 9.05389 6.98073 10.2203 6.51526C11.1016 6.16391 12.4235 5.74637 14.86 5.62816C17.4966 5.50088 18.2863 5.47357 24.96 5.46031C31.6351 5.44715 32.4256 5.47108 35.0631 5.58939C37.4987 5.69763 38.8239 6.10938 39.7044 6.45744C40.8732 6.91873 41.7067 7.46853 42.5831 8.36061C43.4595 9.25269 44.0031 10.0992 44.4591 11.2922C44.8033 12.1893 45.2124 13.5401 45.3275 16.0261C45.453 18.7172 45.4814 19.5241 45.4935 26.3356C45.5064 33.1488 45.4821 33.9558 45.3663 36.646C45.2602 39.1336 44.856 40.4854 44.5159 41.3865C44.0638 42.5778 43.5236 43.4285 42.6503 44.324C41.7772 45.216 40.9461 45.7724 39.7789 46.2378C38.8991 46.5884 37.5757 47.0067 35.1408 47.1249C32.5043 47.2514 31.7145 47.2803 25.0385 47.2928C18.3648 47.306 17.5752 47.2803 14.9378 47.1638ZM14.6462 1.0365C11.9861 1.16458 10.1693 1.59946 8.58162 2.23438C6.93816 2.88834 5.54499 3.76476 4.15915 5.18511C2.77155 6.60626 1.9194 8.03069 1.28356 9.70979C0.668033 11.3344 0.250845 13.1896 0.133364 15.9063C0.0167624 18.628 -0.00999545 19.496 0.00299285 26.4249C0.0159812 33.3531 0.045864 34.2228 0.173013 36.9452C0.300161 39.6594 0.724674 41.513 1.34674 43.1342C1.98825 44.8117 2.84606 46.2329 4.23845 47.6482C5.63005 49.0637 7.02654 49.9325 8.67244 50.5824C10.2625 51.2099 12.0808 51.6373 14.7418 51.7564C17.4083 51.8763 18.2596 51.9027 25.0466 51.8894C31.8368 51.8763 32.6882 51.8457 35.3547 51.7167C38.0148 51.5868 39.8299 51.1521 41.4192 50.5187C43.0626 49.8623 44.4558 48.9884 45.8418 47.5673C47.2277 46.1468 48.0798 44.7216 48.7157 43.0416C49.3313 41.4187 49.75 39.5627 49.8658 36.8485C49.9825 34.1252 50.0101 33.2555 49.997 26.3274C49.984 19.3985 49.9534 18.5304 49.827 15.8095C49.7006 13.0929 49.2746 11.2401 48.6533 9.61799C48.011 7.94059 47.154 6.52024 45.7624 5.10408C44.3708 3.68951 42.9743 2.81807 41.3284 2.17079C39.7376 1.54234 37.9199 1.11415 35.2591 0.996731C32.5925 0.876126 31.7412 0.849613 24.9518 0.86287C18.164 0.876126 17.3127 0.905829 14.6462 1.0365Z" fill="white"/>
</svg>
