<svg width="50" height="52" viewBox="0 0 50 52" fill="none" xmlns="http://www.w3.org/2000/svg">
<path id="LinkIn Logo Vector" fill-rule="evenodd" clip-rule="evenodd" d="M46.3788 0.859772H3.76875C1.73047 0.859772 0 2.50478 0 4.53184V48.2186C0 50.2475 1.13564 51.8925 3.17305 51.8925H45.7831C47.824 51.8925 50 50.2475 50 48.2186V4.53184C50 2.50478 48.4188 0.859772 46.3788 0.859772ZM19.0472 20.3004H25.7784V23.8025H25.8521C26.878 21.9142 29.9089 19.9973 33.6569 19.9973C40.8498 19.9973 42.8575 23.8953 42.8575 31.1146V44.6025H35.7142V32.4446C35.7142 29.2125 34.4498 26.3762 31.4928 26.3762C27.9021 26.3762 26.1905 28.8569 26.1905 32.9305V44.6025H19.0472V20.3004ZM7.14248 44.6025H14.2858V20.3004H7.14248V44.6025ZM15.1785 11.7952C15.1785 14.3128 13.1808 16.3518 10.7142 16.3518C8.24756 16.3518 6.2498 14.3128 6.2498 11.7952C6.2498 9.27769 8.24756 7.23867 10.7142 7.23867C13.1808 7.23867 15.1785 9.27769 15.1785 11.7952Z" fill="white"/>
</svg>
