<svg width="53" height="54" viewBox="0 0 53 54" fill="none" xmlns="http://www.w3.org/2000/svg">
<g id="person">
<path id="icon" d="M26.4987 27C24.0695 27 21.99 26.1188 20.2602 24.3563C18.5303 22.5938 17.6654 20.475 17.6654 18C17.6654 15.525 18.5303 13.4063 20.2602 11.6438C21.99 9.88125 24.0695 9 26.4987 9C28.9279 9 31.0074 9.88125 32.7372 11.6438C34.4671 13.4063 35.332 15.525 35.332 18C35.332 20.475 34.4671 22.5938 32.7372 24.3563C31.0074 26.1188 28.9279 27 26.4987 27ZM8.83203 45V38.7C8.83203 37.425 9.15408 36.2531 9.79818 35.1844C10.4423 34.1156 11.298 33.3 12.3654 32.7375C14.6473 31.575 16.9661 30.7031 19.3216 30.1219C21.6772 29.5406 24.0695 29.25 26.4987 29.25C28.9279 29.25 31.3202 29.5406 33.6758 30.1219C36.0313 30.7031 38.3501 31.575 40.632 32.7375C41.6994 33.3 42.5551 34.1156 43.1992 35.1844C43.8433 36.2531 44.1654 37.425 44.1654 38.7V45H8.83203ZM13.2487 40.5H39.7487V38.7C39.7487 38.2875 39.6475 37.9125 39.4451 37.575C39.2426 37.2375 38.9758 36.975 38.6445 36.7875C36.657 35.775 34.6511 35.0156 32.6268 34.5094C30.6025 34.0031 28.5598 33.75 26.4987 33.75C24.4376 33.75 22.3949 34.0031 20.3706 34.5094C18.3463 35.0156 16.3404 35.775 14.3529 36.7875C14.0216 36.975 13.7548 37.2375 13.5523 37.575C13.3499 37.9125 13.2487 38.2875 13.2487 38.7V40.5ZM26.4987 22.5C27.7133 22.5 28.753 22.0594 29.618 21.1781C30.4829 20.2969 30.9154 19.2375 30.9154 18C30.9154 16.7625 30.4829 15.7031 29.618 14.8219C28.753 13.9406 27.7133 13.5 26.4987 13.5C25.2841 13.5 24.2444 13.9406 23.3794 14.8219C22.5145 15.7031 22.082 16.7625 22.082 18C22.082 19.2375 22.5145 20.2969 23.3794 21.1781C24.2444 22.0594 25.2841 22.5 26.4987 22.5Z" fill="#1D1B20"/>
</g>
</svg>
