<svg width="44" height="52" viewBox="0 0 44 52" fill="none" xmlns="http://www.w3.org/2000/svg">
<path id="TikTok Logo Vector" d="M37.0905 11.0682C34.3973 9.27604 32.4541 6.40764 31.8474 3.06533C31.7166 2.3435 31.6435 1.59977 31.6435 0.839111H23.0476L23.0339 36.0006C22.8896 39.9383 19.7144 43.0984 15.8222 43.0984C14.6126 43.0984 13.4733 42.7898 12.4705 42.2512C10.1703 41.0156 8.5959 38.5554 8.5959 35.7238C8.5959 31.6567 11.8384 28.3482 15.8213 28.3482C16.5655 28.3482 17.2786 28.4737 17.9536 28.6887V19.7321C17.2552 19.6345 16.5451 19.5748 15.8213 19.5748C7.09757 19.5748 0 26.818 0 35.7238C0 41.1868 2.67378 46.0216 6.75518 48.9457C9.32458 50.7876 12.451 51.8719 15.8222 51.8719C24.5469 51.8719 31.6445 44.6277 31.6445 35.7238L31.6435 17.8932C35.0147 20.3633 39.1469 21.8179 43.6038 21.8179V13.0445C41.2032 13.0445 38.9674 12.3167 37.0905 11.0682Z" fill="white"/>
</svg>
