<?xml version="1.0" encoding="UTF-8"?>
<svg version="1.1" xmlns="http://www.w3.org/2000/svg" width="560" height="251">
<path d="M0 0 C184.8 0 369.6 0 560 0 C560 82.83 560 165.66 560 251 C375.2 251 190.4 251 0 251 C0 168.17 0 85.34 0 0 Z " fill="#FDFDFD" transform="translate(0,0)"/>
<path d="M0 0 C1.22716736 -0.00540298 2.45433472 -0.01080597 3.71868896 -0.01637268 C7.05985947 -0.02668409 10.40002775 -0.01922105 13.74110913 -0.00266147 C17.25139517 0.01127432 20.76165362 0.00471943 24.2719574 0.00120544 C30.16364846 -0.00148963 36.05513497 0.01191931 41.94677734 0.03515625 C48.74233777 0.06177405 55.53755668 0.0635066 62.3331514 0.05176789 C68.89259016 0.04096126 75.45190631 0.04719892 82.01133537 0.06132317 C84.79304873 0.06705679 87.57467159 0.06702113 90.35638618 0.06225777 C94.24553311 0.05656692 98.13434302 0.07587438 102.0234375 0.09765625 C103.16807968 0.0931546 104.31272186 0.08865295 105.49205017 0.08401489 C114.40761625 0.16680728 121.18972971 1.65597543 127.90795898 7.82202148 C133.0973512 13.48557136 134.54796735 19.26091335 134.65234375 26.75927734 C134.6722789 28.0367836 134.69221405 29.31428986 134.7127533 30.63050842 C134.72978977 32.03418811 134.74667684 33.43786961 134.76342773 34.84155273 C134.78416736 36.30550111 134.80525713 37.76944457 134.82667542 39.23338318 C134.88258839 43.15646748 134.9320564 47.07960686 134.9796524 51.00279999 C135.00950691 53.43801983 135.04086868 55.8732158 135.07269287 58.30841064 C135.32671612 77.83050438 135.5452876 97.3527981 135.57202148 116.87670898 C135.57460968 117.72079315 135.57719788 118.56487732 135.5798645 119.43453979 C135.61443897 133.49244979 135.00974819 147.43354126 134.44702148 161.50170898 C79.33702148 161.50170898 24.22702148 161.50170898 -32.55297852 161.50170898 C-33.70218918 143.11433837 -33.70218918 143.11433837 -33.68237305 135.83959961 C-33.68412537 135.00108963 -33.68587769 134.16257965 -33.68768311 133.29866028 C-33.69200517 130.58507069 -33.68919391 127.87154899 -33.68579102 125.15795898 C-33.68646782 123.21724434 -33.68744095 121.27652979 -33.68869019 119.33581543 C-33.69015508 115.28156726 -33.68805557 111.22734127 -33.68334961 107.1730957 C-33.67882877 103.08746888 -33.67874729 99.00188649 -33.68334961 94.91625977 C-33.69845832 81.4441823 -33.66651152 67.97335148 -33.55297852 54.50170898 C-33.54648788 53.66623535 -33.53999725 52.83076172 -33.53330994 51.9699707 C-33.49514585 47.39869223 -33.43459158 42.8288273 -33.33590317 38.25843811 C-33.296814 36.30290366 -33.27499499 34.34704708 -33.25393677 32.39123535 C-33.01282315 23.47869458 -31.45798632 15.01650793 -25.36547852 8.12670898 C-24.60170898 7.21791992 -24.60170898 7.21791992 -23.82250977 6.29077148 C-16.48492638 0.50658355 -9.07929853 -0.07682216 0 0 Z " fill="#040405" transform="translate(236.552978515625,89.498291015625)"/>
<path d="M0 0 C1.22716736 -0.00540298 2.45433472 -0.01080597 3.71868896 -0.01637268 C7.05985947 -0.02668409 10.40002775 -0.01922105 13.74110913 -0.00266147 C17.25139517 0.01127432 20.76165362 0.00471943 24.2719574 0.00120544 C30.16364846 -0.00148963 36.05513497 0.01191931 41.94677734 0.03515625 C48.74233777 0.06177405 55.53755668 0.0635066 62.3331514 0.05176789 C68.89259016 0.04096126 75.45190631 0.04719892 82.01133537 0.06132317 C84.79304873 0.06705679 87.57467159 0.06702113 90.35638618 0.06225777 C94.24553311 0.05656692 98.13434302 0.07587438 102.0234375 0.09765625 C103.16807968 0.0931546 104.31272186 0.08865295 105.49205017 0.08401489 C114.40761625 0.16680728 121.18972971 1.65597543 127.90795898 7.82202148 C133.0973512 13.48557136 134.54796735 19.26091335 134.65234375 26.75927734 C134.6722789 28.0367836 134.69221405 29.31428986 134.7127533 30.63050842 C134.72978977 32.03418811 134.74667684 33.43786961 134.76342773 34.84155273 C134.78416736 36.30550111 134.80525713 37.76944457 134.82667542 39.23338318 C134.88258839 43.15646748 134.9320564 47.07960686 134.9796524 51.00279999 C135.00950691 53.43801983 135.04086868 55.8732158 135.07269287 58.30841064 C135.32671612 77.83050438 135.5452876 97.3527981 135.57202148 116.87670898 C135.57460968 117.72079315 135.57719788 118.56487732 135.5798645 119.43453979 C135.60463844 129.50757243 135.36095345 139.54899553 134.9387207 149.61352539 C134.86807655 151.33585136 134.86807655 151.33585136 134.79600525 153.0929718 C134.68086741 155.89593556 134.5645152 158.69884316 134.44702148 161.50170898 C121.34747674 161.64061905 108.24810667 161.74728483 95.14797592 161.81258202 C89.06526459 161.84391875 82.98305645 161.88643581 76.90063477 161.9543457 C71.03267714 162.01945245 65.16520403 162.05539737 59.29691315 162.07097244 C57.05610778 162.08207424 54.81532947 162.10375337 52.57472992 162.13608932 C49.44010244 162.17953587 46.30748666 162.18564784 43.17260742 162.18286133 C42.24256393 162.20443298 41.31252045 162.22600464 40.35429382 162.24822998 C37.90496393 162.22461093 35.80837758 162.15366526 33.44702148 161.50170898 C30.91827393 158.57827759 30.91827393 158.57827759 29.44702148 155.50170898 C28.82053711 154.55811523 28.82053711 154.55811523 28.18139648 153.59545898 C25.79586104 149.73316351 24.90929379 147.01862163 25.44702148 142.50170898 C25.77702148 142.17170898 26.10702148 141.84170898 26.44702148 141.50170898 C27.10277613 135.27203983 26.09635083 132.46979484 22.56811523 127.39233398 C20.95417872 124.67057344 20.93427111 122.57821123 21.44702148 119.50170898 C22.10702148 118.84170898 22.76702148 118.18170898 23.44702148 117.50170898 C23.73975166 114.19645176 23.86178341 110.9340889 23.92553711 107.61889648 C24.10426185 102.92846188 24.75964166 99.51164202 27.44702148 95.50170898 C29.53295898 94.32983398 29.53295898 94.32983398 31.82202148 93.75170898 C34.28540093 93.09142171 36.49219863 92.48065121 38.81030273 91.40014648 C42.17429795 90.25389626 44.73766893 90.5209663 48.25952148 90.87670898 C49.4209668 90.98756836 50.58241211 91.09842773 51.77905273 91.21264648 C52.65948242 91.30803711 53.53991211 91.40342773 54.44702148 91.50170898 C54.56303711 92.1372168 54.67905273 92.77272461 54.79858398 93.42749023 C55.01256836 94.11198242 55.22655273 94.79647461 55.44702148 95.50170898 C57.80888287 96.76316666 57.80888287 96.76316666 60.44702148 97.50170898 C61.93202148 97.99670898 61.93202148 97.99670898 63.44702148 98.50170898 C64.13452148 100.56420898 64.13452148 100.56420898 64.44702148 102.50170898 C65.10702148 102.50170898 65.76702148 102.50170898 66.44702148 102.50170898 C67.10702148 101.84170898 67.76702148 101.18170898 68.44702148 100.50170898 C68.81254951 101.91548681 69.16397644 103.33291475 69.50952148 104.75170898 C69.70674805 105.54061523 69.90397461 106.32952148 70.10717773 107.14233398 C70.46549566 109.62996646 70.11854231 111.11505791 69.44702148 113.50170898 C70.69999023 113.41791992 71.95295898 113.33413086 73.24389648 113.24780273 C74.89491792 113.14461389 76.54596076 113.0417672 78.19702148 112.93920898 C79.43452148 112.85509766 79.43452148 112.85509766 80.69702148 112.76928711 C81.49624023 112.72094727 82.29545898 112.67260742 83.11889648 112.62280273 C84.21862793 112.55210571 84.21862793 112.55210571 85.34057617 112.47998047 C87.53059374 112.50257105 89.35189335 112.88683442 91.44702148 113.50170898 C89.04642332 114.70200807 87.55341499 114.61630641 84.87670898 114.59936523 C83.98081055 114.59614258 83.08491211 114.59291992 82.16186523 114.58959961 C80.75614258 114.57703125 80.75614258 114.57703125 79.32202148 114.56420898 C78.37713867 114.55969727 77.43225586 114.55518555 76.45874023 114.55053711 C74.12143761 114.53873255 71.78426087 114.52226657 69.44702148 114.50170898 C69.44702148 115.16170898 69.44702148 115.82170898 69.44702148 116.50170898 C70.46127197 116.48599854 71.47552246 116.47028809 72.52050781 116.45410156 C76.28312236 116.3998058 80.04570226 116.36536048 83.80859375 116.33691406 C85.43723371 116.32182655 87.06583305 116.30135392 88.69433594 116.27539062 C91.03517684 116.2390045 93.37548067 116.22198278 95.71655273 116.20874023 C96.44477737 116.19325638 97.17300201 116.17777252 97.92329407 116.16181946 C102.9938501 116.16013101 102.9938501 116.16013101 105.14782715 117.78369141 C107.42352317 120.793007 106.68646537 124.49941715 106.52124023 128.10717773 C106.4815789 129.36598503 106.4815789 129.36598503 106.44111633 130.65022278 C106.35334451 133.33060795 106.24420024 136.00963948 106.13452148 138.68920898 C106.0712635 140.50621777 106.00939741 142.32327558 105.94897461 144.14038086 C105.79780248 148.59488666 105.62745848 153.04829648 105.44702148 157.50170898 C105.90077148 156.84170898 106.35452148 156.18170898 106.82202148 155.50170898 C107.35827148 154.84170898 107.89452148 154.18170898 108.44702148 153.50170898 C109.10702148 153.50170898 109.76702148 153.50170898 110.44702148 153.50170898 C110.44480087 152.60190811 110.44258026 151.70210724 110.44029236 150.77503967 C110.42029204 142.31356931 110.40504868 133.85210684 110.39520931 125.39061832 C110.38998083 121.04002439 110.38288383 116.68944992 110.37158203 112.33886719 C110.36075189 108.14380641 110.35474438 103.9487644 110.35214424 99.75369072 C110.35029022 98.1496393 110.34667004 96.54558896 110.34129143 94.94154549 C110.3340793 92.70254383 110.33303061 90.46362069 110.33349609 88.22460938 C110.33127548 86.94775772 110.32905487 85.67090607 110.32676697 84.35536194 C110.44702148 81.50170898 110.44702148 81.50170898 111.44702148 80.50170898 C113.80015703 80.42899157 116.15535817 80.41800031 118.50952148 80.43920898 C120.44504883 80.45274414 120.44504883 80.45274414 122.41967773 80.46655273 C123.41870117 80.4781543 124.41772461 80.48975586 125.44702148 80.50170898 C125.40890589 72.78203681 125.34945926 65.06277554 125.26311874 57.34349632 C125.22368547 53.75868328 125.19147711 50.17411432 125.17602539 46.58911133 C125.16083074 43.12638158 125.12633741 39.66432306 125.07871246 36.20189285 C125.05675396 34.24451158 125.05455016 32.2869408 125.05267334 30.32943726 C125.04523356 21.60759683 125.04523356 21.60759683 120.44702148 14.50170898 C114.1166407 9.209705 108.4960143 8.7851695 100.45068359 8.87060547 C99.27082382 8.86345016 98.09096405 8.85629486 96.87535095 8.84892273 C92.9912903 8.83207063 89.10838935 8.85141894 85.22436523 8.87280273 C82.51729153 8.87433604 79.81023492 8.86956844 77.10316467 8.86549377 C71.43664294 8.86098266 65.77045237 8.87678263 60.10400391 8.90478516 C53.56568303 8.93684848 47.02795865 8.93681235 40.48959535 8.91957039 C34.18160759 8.90367315 27.87383717 8.91045825 21.56585884 8.9275074 C18.88935067 8.93435509 16.21301793 8.93336919 13.53651237 8.92596245 C9.79528868 8.92050556 6.05507359 8.94090277 2.31396484 8.96826172 C0.65938263 8.9584729 0.65938263 8.9584729 -1.02862549 8.94848633 C-7.47943691 9.02859956 -11.21609902 9.86151663 -16.55297852 13.50170898 C-17.21297852 13.50170898 -17.87297852 13.50170898 -18.55297852 13.50170898 C-18.86235352 14.12045898 -19.17172852 14.73920898 -19.49047852 15.37670898 C-20.17797852 16.75170898 -20.86547852 18.12670898 -21.55297852 19.50170898 C-21.62363468 21.54225904 -21.63719828 23.58505156 -21.61547852 25.62670898 C-21.60194336 27.27026367 -21.60194336 27.27026367 -21.58813477 28.94702148 C-21.5765332 29.79006836 -21.56493164 30.63311523 -21.55297852 31.50170898 C-20.56297852 31.17170898 -19.57297852 30.84170898 -18.55297852 30.50170898 C-18.55297852 29.84170898 -18.55297852 29.18170898 -18.55297852 28.50170898 C-16.24297852 28.50170898 -13.93297852 28.50170898 -11.55297852 28.50170898 C-10.89297852 29.82170898 -10.23297852 31.14170898 -9.55297852 32.50170898 C-11.53297852 32.99670898 -11.53297852 32.99670898 -13.55297852 33.50170898 C-13.61485352 34.28545898 -13.67672852 35.06920898 -13.74047852 35.87670898 C-14.00860352 36.74295898 -14.27672852 37.60920898 -14.55297852 38.50170898 C-17.11547852 39.81420898 -17.11547852 39.81420898 -19.55297852 40.50170898 C-20.21297852 39.84170898 -20.87297852 39.18170898 -21.55297852 38.50170898 C-21.88297852 79.09170898 -22.21297852 119.68170898 -22.55297852 161.50170898 C-25.85297852 161.50170898 -29.15297852 161.50170898 -32.55297852 161.50170898 C-33.48550515 149.37128551 -33.70104178 137.31948699 -33.68579102 125.15795898 C-33.68646782 123.21724434 -33.68744095 121.27652979 -33.68869019 119.33581543 C-33.69015508 115.28156726 -33.68805557 111.22734127 -33.68334961 107.1730957 C-33.67882877 103.08746888 -33.67874729 99.00188649 -33.68334961 94.91625977 C-33.69845832 81.4441823 -33.66651152 67.97335148 -33.55297852 54.50170898 C-33.54648788 53.66623535 -33.53999725 52.83076172 -33.53330994 51.9699707 C-33.49514585 47.39869223 -33.43459158 42.8288273 -33.33590317 38.25843811 C-33.296814 36.30290366 -33.27499499 34.34704708 -33.25393677 32.39123535 C-33.01282315 23.47869458 -31.45798632 15.01650793 -25.36547852 8.12670898 C-24.60170898 7.21791992 -24.60170898 7.21791992 -23.82250977 6.29077148 C-16.48492638 0.50658355 -9.07929853 -0.07682216 0 0 Z " fill="#232324" transform="translate(236.552978515625,89.498291015625)"/>
<path d="M0 0 C1.16144531 0.11085937 2.32289063 0.22171875 3.51953125 0.3359375 C4.39996094 0.43132812 5.28039062 0.52671875 6.1875 0.625 C6.30351562 1.26050781 6.41953125 1.89601562 6.5390625 2.55078125 C6.75304687 3.23527344 6.96703125 3.91976562 7.1875 4.625 C9.54936139 5.88645768 9.54936139 5.88645768 12.1875 6.625 C13.1775 6.955 14.1675 7.285 15.1875 7.625 C15.875 9.6875 15.875 9.6875 16.1875 11.625 C16.8475 11.625 17.5075 11.625 18.1875 11.625 C18.8475 10.965 19.5075 10.305 20.1875 9.625 C20.55302803 11.03877782 20.90445495 12.45620576 21.25 13.875 C21.54583984 15.05835938 21.54583984 15.05835938 21.84765625 16.265625 C22.20597417 18.75325747 21.85902083 20.23834893 21.1875 22.625 C23.06695312 22.49931641 23.06695312 22.49931641 24.984375 22.37109375 C26.63539643 22.26790491 28.28643927 22.16505822 29.9375 22.0625 C30.7625 22.00642578 31.5875 21.95035156 32.4375 21.89257812 C33.23671875 21.84423828 34.0359375 21.79589844 34.859375 21.74609375 C35.5925293 21.6989624 36.32568359 21.65183105 37.08105469 21.60327148 C39.27107226 21.62586207 41.09237187 22.01012544 43.1875 22.625 C40.78690183 23.82529908 39.29389351 23.73959743 36.6171875 23.72265625 C35.72128906 23.71943359 34.82539063 23.71621094 33.90234375 23.71289062 C32.96519531 23.70451172 32.02804687 23.69613281 31.0625 23.6875 C30.11761719 23.68298828 29.17273438 23.67847656 28.19921875 23.67382812 C25.86191613 23.66202357 23.52473939 23.64555759 21.1875 23.625 C21.1875 24.285 21.1875 24.945 21.1875 25.625 C22.70887573 25.60143433 22.70887573 25.60143433 24.26098633 25.57739258 C28.02360087 25.52309681 31.78618078 25.48865149 35.54907227 25.46020508 C37.17771223 25.44511757 38.80631156 25.42464494 40.43481445 25.39868164 C42.77565535 25.36229551 45.11595919 25.3452738 47.45703125 25.33203125 C48.54936821 25.30880547 48.54936821 25.30880547 49.66377258 25.28511047 C54.73432861 25.28342203 54.73432861 25.28342203 56.88830566 26.90698242 C59.16400169 29.91629801 58.42694388 33.62270817 58.26171875 37.23046875 C58.22205742 38.48927605 58.22205742 38.48927605 58.18159485 39.77351379 C58.09382303 42.45389896 57.98467875 45.1329305 57.875 47.8125 C57.81174201 49.62950878 57.74987593 51.4465666 57.68945312 53.26367188 C57.538281 57.71817767 57.36793699 62.17158749 57.1875 66.625 C57.63424072 65.97595703 58.08098145 65.32691406 58.54125977 64.65820312 C60.1875 62.625 60.1875 62.625 62.52734375 62.09375 C69.51674962 62.17783308 69.51674962 62.17783308 72.8125 64.375 C74.1875 66.625 74.1875 66.625 74.1875 70.625 C62.65257964 70.76394331 51.11785792 70.87059238 39.58227158 70.93587303 C34.22593405 70.96720279 28.87016847 71.00970616 23.51416016 71.07763672 C18.34645204 71.14276981 13.17929444 71.17869365 8.01120758 71.19426346 C6.03833598 71.20536064 4.06549494 71.22703112 2.09285736 71.25938034 C-0.66825244 71.30286397 -3.42708015 71.30893761 -6.18847656 71.30615234 C-7.00631119 71.327724 -7.82414581 71.34929565 -8.66676331 71.371521 C-10.95269775 71.3465271 -10.95269775 71.3465271 -14.8125 70.625 C-17.2723999 67.7015686 -17.2723999 67.7015686 -18.8125 64.625 C-19.23015625 63.9959375 -19.6478125 63.366875 -20.078125 62.71875 C-22.46366044 58.85645452 -23.3502277 56.14191265 -22.8125 51.625 C-22.3175 51.13 -22.3175 51.13 -21.8125 50.625 C-21.15674535 44.39533084 -22.16317065 41.59308586 -25.69140625 36.515625 C-27.30534277 33.79386446 -27.32525038 31.70150225 -26.8125 28.625 C-26.1525 27.965 -25.4925 27.305 -24.8125 26.625 C-24.51976982 23.31974278 -24.39773808 20.05737992 -24.33398438 16.7421875 C-24.15525964 12.0517529 -23.49987982 8.63493304 -20.8125 4.625 C-18.7265625 3.453125 -18.7265625 3.453125 -16.4375 2.875 C-13.97412055 2.21471273 -11.76732285 1.60394222 -9.44921875 0.5234375 C-6.08522354 -0.62281272 -3.52185255 -0.35574268 0 0 Z " fill="#19191D" transform="translate(284.8125,180.375)"/>
<path d="M0 0 C3.80490905 2.47866325 6.26657548 5.4198697 8.30859375 9.50390625 C8.88971503 16.22967061 9.25024224 22.89985879 5.70703125 28.85546875 C1.73082169 33.54250907 -3.87059936 35.90318436 -9.69140625 37.50390625 C-9.09972656 37.86742187 -8.50804687 38.2309375 -7.8984375 38.60546875 C0.49656536 43.9464983 5.77688343 49.72719512 8.30859375 59.50390625 C9.66813156 69.6500866 7.62999509 77.74512892 1.48828125 85.9296875 C-2.91459298 91.11549961 -2.91459298 91.11549961 -5.69140625 92.50390625 C-10.57639877 92.83509218 -15.46140132 92.90309572 -20.35644531 92.96386719 C-21.98597745 92.99038994 -23.61534445 93.03122312 -25.24414062 93.08691406 C-40.50938783 93.6023801 -40.50938783 93.6023801 -45.66015625 89.18359375 C-47.33789062 87.34716797 -47.33789062 87.34716797 -48.69140625 85.50390625 C-49.11228516 84.94590332 -49.53316406 84.38790039 -49.96679688 83.81298828 C-54.65747344 76.62908798 -55.74573133 67.40812672 -54.26171875 59.09765625 C-52.1055049 50.47280086 -47.05921738 43.36302111 -39.57421875 38.49609375 C-33.92617642 35.51973949 -27.99521208 34.17452389 -21.69140625 33.50390625 C-22.41457031 32.74207031 -22.41457031 32.74207031 -23.15234375 31.96484375 C-29.82690085 24.69093867 -29.82690085 24.69093867 -30.69140625 19.50390625 C-30.39919619 13.36749505 -29.46189944 7.48698679 -25.11328125 2.8046875 C-16.95302445 -4.52180393 -9.69978814 -5.1820786 0 0 Z " fill="#FE355B" transform="translate(461.69140625,158.49609375)"/>
<path d="M0 0 C2.45261797 0.00536945 4.9050535 0.00001831 7.35766602 -0.00634766 C14.77534496 -0.00906891 22.06457179 0.12334368 29.44726562 0.92089844 C34.51855403 1.35562373 39.62220871 1.09367779 44.70336914 0.91552734 C50.30902137 0.81977863 53.87569554 1.62585356 58.89086914 4.13037109 C60.4869566 4.69540054 62.09018376 5.24118591 63.70336914 5.75537109 C65.87408062 6.45029766 67.85139322 7.11063313 69.89086914 8.13037109 C69.89086914 8.79037109 69.89086914 9.45037109 69.89086914 10.13037109 C70.48512695 10.18580078 71.07938477 10.24123047 71.69165039 10.29833984 C74.90465495 11.51391706 75.52998268 13.43764802 77.07836914 16.44287109 C77.84213867 17.89113281 77.84213867 17.89113281 78.62133789 19.36865234 C79.67519282 21.66119215 80.40549141 23.66839489 80.89086914 26.13037109 C81.55086914 26.13037109 82.21086914 26.13037109 82.89086914 26.13037109 C82.89086914 27.78037109 82.89086914 29.43037109 82.89086914 31.13037109 C83.55086914 31.13037109 84.21086914 31.13037109 84.89086914 31.13037109 C84.89086914 35.75037109 84.89086914 40.37037109 84.89086914 45.13037109 C85.22086914 45.13037109 85.55086914 45.13037109 85.89086914 45.13037109 C85.91626 52.28368368 85.93375324 59.43698461 85.94580078 66.59033203 C85.95082418 69.02295364 85.95764405 71.45557223 85.96630859 73.88818359 C85.9784614 77.38819116 85.98411746 80.88815875 85.98852539 84.38818359 C85.99368668 85.47277863 85.99884796 86.55737366 86.00416565 87.67483521 C86.00453325 92.64204389 85.75270993 97.22856015 84.89086914 102.13037109 C85.22086914 103.12037109 85.55086914 104.11037109 85.89086914 105.13037109 C85.98855061 107.88388271 86.03062653 110.61125469 86.02368164 113.36474609 C86.02500092 114.18726868 86.02632019 115.00979126 86.02767944 115.85723877 C86.02959625 118.53165451 86.02326491 121.20596602 86.01586914 123.88037109 C86.01453979 125.23412842 86.01453979 125.23412842 86.01318359 126.61523438 C85.99711378 140.47730415 85.72604119 154.2903771 84.89086914 168.13037109 C80.93086914 168.13037109 76.97086914 168.13037109 72.89086914 168.13037109 C72.89610596 166.38167725 72.90134277 164.6329834 72.90673828 162.83129883 C72.99619159 129.70304662 72.99274311 96.57376434 72.62741089 63.447052 C72.59333989 60.32766561 72.5660696 57.20833546 72.54470825 54.08883667 C72.51900901 50.40493659 72.47890908 46.72146796 72.42774582 43.03783607 C72.40341971 41.04990954 72.39306701 39.06182718 72.38320923 37.07377625 C72.22267681 27.36033959 71.04084057 20.28034253 63.89086914 13.13037109 C58.61108042 9.41672195 54.0277459 8.01279243 47.64900208 7.98320007 C46.0573674 7.97246712 46.0573674 7.97246712 44.43357849 7.96151733 C42.69504356 7.95748398 42.69504356 7.95748398 40.92138672 7.95336914 C39.08414032 7.94351234 39.08414032 7.94351234 37.20977783 7.93345642 C33.15164952 7.91372713 29.09356071 7.90205726 25.03540039 7.89208984 C23.63516407 7.88804031 22.23492793 7.88392333 20.834692 7.87973976 C14.25392992 7.86069697 7.67317897 7.84646499 1.09239465 7.83812779 C-6.48842508 7.82836354 -14.06895219 7.80206175 -21.64966887 7.7616269 C-27.51905849 7.73140126 -33.38836454 7.71665277 -39.25783044 7.71334678 C-42.75866564 7.71100331 -46.25918792 7.70213567 -49.75993919 7.6768856 C-53.6709451 7.64913155 -57.58157043 7.65345573 -61.49267578 7.66040039 C-62.64157791 7.64759033 -63.79048004 7.63478027 -64.97419739 7.62158203 C-72.87211632 7.67258861 -79.13059352 8.98125764 -85.41381836 13.95458984 C-85.93202148 14.56947266 -86.45022461 15.18435547 -86.98413086 15.81787109 C-87.51780273 16.41986328 -88.05147461 17.02185547 -88.60131836 17.64208984 C-93.28023245 25.36351025 -93.63401931 33.38781246 -93.79272461 42.22412109 C-93.82593239 43.5945318 -93.85951256 44.96493351 -93.89341736 46.33532715 C-94.3879582 68.52586145 -94.21877761 90.73451013 -94.17779541 112.92877197 C-94.16739851 119.17174942 -94.16296344 125.41473116 -94.15795898 131.65771484 C-94.14736867 143.8152779 -94.13039779 155.97282234 -94.10913086 168.13037109 C-96.08913086 168.13037109 -98.06913086 168.13037109 -100.10913086 168.13037109 C-100.93050889 158.03127581 -101.23914013 148.02638144 -101.18429565 137.89744377 C-101.17124265 135.46023059 -101.16494492 133.02307339 -101.16015625 130.58583069 C-101.14886816 125.41315197 -101.12963284 120.24052044 -101.10913086 115.06787109 C-101.08533113 109.05871946 -101.06500789 103.04959535 -101.05319214 97.04040718 C-101.04682248 94.66662449 -101.03432262 92.29292929 -101.02148438 89.91917419 C-100.99659896 81.93481914 -101.2314615 74.11826818 -102.08789062 66.16481018 C-102.11178547 62.75112536 -101.28574835 60.31329521 -100.10913086 57.13037109 C-99.91526311 54.13954695 -99.91526311 54.13954695 -100.08959961 51.06005859 C-100.11860352 49.91537109 -100.14760742 48.77068359 -100.17749023 47.59130859 C-100.25615349 45.22367342 -100.34705751 42.8564094 -100.45092773 40.48974609 C-100.65750214 31.01910391 -99.00115839 22.22110056 -92.57397461 14.87646484 C-91.32293945 13.73371094 -91.32293945 13.73371094 -90.04663086 12.56787109 C-89.2100293 11.78283203 -88.37342773 10.99779297 -87.51147461 10.18896484 C-84.03445871 7.20947317 -81.5667693 5.14925988 -77.10913086 4.13037109 C-76.10390381 3.63037598 -75.09867676 3.13038086 -74.06298828 2.61523438 C-69.5961412 0.68326978 -65.46242203 0.76671831 -60.65991211 0.87255859 C-59.31910835 0.88248337 -59.31910835 0.88248337 -57.95121765 0.89260864 C-55.10766105 0.91587496 -52.26490455 0.95948457 -49.42163086 1.00537109 C-45.6886127 1.05210184 -41.95558096 1.0901556 -38.22241211 1.12255859 C-36.86878319 1.13544418 -36.86878319 1.13544418 -35.48780823 1.14859009 C-30.00571601 1.18076508 -24.6486998 0.92237382 -19.19238281 0.36621094 C-12.80904182 -0.12205475 -6.39866813 -0.01665152 0 0 Z " fill="#D7D7D7" transform="translate(298.109130859375,82.86962890625)"/>
<path d="M0 0 C1.16144531 0.11085937 2.32289063 0.22171875 3.51953125 0.3359375 C4.39996094 0.43132812 5.28039062 0.52671875 6.1875 0.625 C6.30222656 1.25921875 6.41695313 1.8934375 6.53515625 2.546875 C6.75042969 3.23265625 6.96570313 3.9184375 7.1875 4.625 C9.63066271 5.87790395 11.43275395 6.625 14.1875 6.625 C14.72043835 8.37135165 15.23840663 10.12227652 15.75 11.875 C16.04003906 12.84953125 16.33007812 13.8240625 16.62890625 14.828125 C17.17999836 17.58743932 17.12539609 19.0162824 16.1875 21.625 C17.1775 21.955 18.1675 22.285 19.1875 22.625 C19.1875 23.615 19.1875 24.605 19.1875 25.625 C16.8775 25.625 14.5675 25.625 12.1875 25.625 C12.1875 24.965 12.1875 24.305 12.1875 23.625 C11.5275 23.625 10.8675 23.625 10.1875 23.625 C10.8475 24.615 11.5075 25.605 12.1875 26.625 C13.1775 26.79 14.1675 26.955 15.1875 27.125 C16.1775 27.29 17.1675 27.455 18.1875 27.625 C20.1875 30.625 20.1875 30.625 19.8125 32.8125 C19.60625 33.410625 19.4 34.00875 19.1875 34.625 C15.3125 33.75 15.3125 33.75 14.1875 32.625 C12.46934562 34.87667846 12.46934562 34.87667846 11.1875 37.625 C12.03846218 39.78586283 12.03846218 39.78586283 13.1875 41.625 C12.54941406 41.68558594 11.91132813 41.74617188 11.25390625 41.80859375 C10.42761719 41.89238281 9.60132813 41.97617188 8.75 42.0625 C7.92628906 42.14371094 7.10257812 42.22492188 6.25390625 42.30859375 C4.20087975 42.41430815 4.20087975 42.41430815 3.1875 43.625 C6.4875 44.285 9.7875 44.945 13.1875 45.625 C12.8575 46.615 12.5275 47.605 12.1875 48.625 C13.1775 49.12 13.1775 49.12 14.1875 49.625 C13.69921875 55.6796875 13.69921875 55.6796875 13.1875 57.625 C10.02509418 59.73327055 8.68092531 59.96317465 5 60.25 C4.09894531 60.32476562 3.19789063 60.39953125 2.26953125 60.4765625 C1.58246094 60.52554688 0.89539063 60.57453125 0.1875 60.625 C0.5175 61.615 0.8475 62.605 1.1875 63.625 C2.8375 63.955 4.4875 64.285 6.1875 64.625 C6.1875 65.615 6.1875 66.605 6.1875 67.625 C5.59582031 67.67398438 5.00414062 67.72296875 4.39453125 67.7734375 C-0.63302648 68.23404437 -0.63302648 68.23404437 -5.4375 69.6875 C-8.81626516 71.02122309 -11.22015643 71.1475227 -14.8125 70.625 C-17 68.0625 -17 68.0625 -18.8125 64.625 C-19.18503906 64.04878906 -19.55757813 63.47257812 -19.94140625 62.87890625 C-22.42487929 58.99361218 -23.35922033 56.21745077 -22.8125 51.625 C-22.3175 51.13 -22.3175 51.13 -21.8125 50.625 C-21.15674535 44.39533084 -22.16317065 41.59308586 -25.69140625 36.515625 C-27.30534277 33.79386446 -27.32525038 31.70150225 -26.8125 28.625 C-26.1525 27.965 -25.4925 27.305 -24.8125 26.625 C-24.51976982 23.31974278 -24.39773808 20.05737992 -24.33398438 16.7421875 C-24.15525964 12.0517529 -23.49987982 8.63493304 -20.8125 4.625 C-18.7265625 3.453125 -18.7265625 3.453125 -16.4375 2.875 C-13.97412055 2.21471273 -11.76732285 1.60394222 -9.44921875 0.5234375 C-6.08522354 -0.62281272 -3.52185255 -0.35574268 0 0 Z " fill="#554A4F" transform="translate(284.8125,180.375)"/>
<path d="M0 0 C4.5589237 3.15617795 8.35385251 6.59915656 10 12 C10.81200294 18.96002517 11.13122297 26.1519507 7.3984375 32.3203125 C3.36405919 37.16607415 -1.8053661 40.68199279 -8 42 C-15.58436159 42.68948742 -20.52581077 40.40679014 -26.25 35.75 C-31.36322399 30.99351257 -33.12177139 26.49896199 -33.4375 19.5625 C-33.21641787 13.09805848 -31.567526 8.76418757 -27.1640625 4.0234375 C-18.9526725 -3.62164974 -10.09635771 -5.12014882 0 0 Z " fill="#FE355B" transform="translate(507,176)"/>
<path d="M0 0 C1.0402533 -0.00563965 2.08050659 -0.0112793 3.15228271 -0.01708984 C4.29313324 -0.01304138 5.43398376 -0.00899292 6.60940552 -0.00482178 C7.81125488 -0.00832642 9.01310425 -0.01183105 10.25137329 -0.01544189 C13.549035 -0.02274394 16.84644623 -0.02102082 20.14409399 -0.01468372 C23.59576093 -0.00962194 27.04741712 -0.01431589 30.49908447 -0.01745605 C36.29792197 -0.02109616 42.09670856 -0.01629648 47.89553833 -0.0067749 C54.59554219 0.0040995 61.29542422 0.00059167 67.99542511 -0.01042771 C73.74924221 -0.0195116 79.50302268 -0.02078017 85.25684464 -0.01555037 C88.69262126 -0.0124354 92.12834069 -0.01200811 95.56411362 -0.01862335 C99.39696716 -0.02548728 103.22968501 -0.015966 107.06253052 -0.00482178 C108.19933258 -0.00887024 109.33613464 -0.0129187 110.50738525 -0.01708984 C112.07622467 -0.00863037 112.07622467 -0.00863037 113.67675781 0 C115.03562764 0.00113108 115.03562764 0.00113108 116.42194939 0.002285 C119.236345 0.28078223 121.40026898 1.0903711 123.96536255 2.25396729 C123.96536255 2.91396729 123.96536255 3.57396729 123.96536255 4.25396729 C124.50161255 4.32873291 125.03786255 4.40349854 125.59036255 4.48052979 C128.94566686 5.57321112 131.20454495 7.44101934 133.96536255 9.62896729 C134.99661255 10.42045166 136.02786255 11.21193604 137.09036255 12.02740479 C143.66666367 18.44431248 144.42919271 27.93604469 144.57099915 36.63937378 C144.57284966 38.56974991 144.57284966 38.56974991 144.57473755 40.53912354 C144.58988044 41.93622642 144.60667627 43.33331221 144.62498474 44.7303772 C144.66911249 48.48117182 144.68897215 52.23172839 144.70378494 55.98273849 C144.71931289 59.11274867 144.74942409 62.24254579 144.77985096 65.37244129 C144.88309364 75.99949038 144.93228508 86.62649528 144.96536255 97.25396729 C144.96798347 98.06693771 144.9706044 98.87990814 144.97330475 99.71751404 C145.04014215 120.89647542 145.03564192 142.07501578 144.96536255 163.25396729 C141.99536255 163.25396729 139.02536255 163.25396729 135.96536255 163.25396729 C135.96758316 162.53466537 135.96980377 161.81536346 135.97209167 161.07426453 C136.0722067 126.90629303 136.07870285 92.73707666 135.7019043 58.57064819 C135.6678333 55.4512618 135.64056301 52.33193165 135.61920166 49.21243286 C135.59350241 45.52853278 135.55340249 41.84506415 135.50223923 38.16143227 C135.47791312 36.17350573 135.46756042 34.18542337 135.45770264 32.19737244 C135.29717022 22.48393578 134.11533398 15.40393872 126.96536255 8.25396729 C121.70940668 4.55708147 117.12750047 3.14074357 110.77682495 3.0957489 C109.72797119 3.08596008 108.67911743 3.07617126 107.59848022 3.06608582 C106.45336975 3.06033035 105.30825928 3.05457489 104.12844849 3.04864502 C102.91842163 3.03874542 101.70839478 3.02884583 100.46170044 3.01864624 C97.14799869 2.9924813 93.83432074 2.97060987 90.52057934 2.95064425 C87.05587885 2.92875488 83.59122181 2.90138065 80.1265564 2.87458801 C73.56767625 2.82470101 67.00877194 2.77974739 60.4498446 2.73656565 C52.98190881 2.68715913 45.51401663 2.63225368 38.04612303 2.57688606 C22.68590984 2.46312731 7.32565653 2.356275 -8.03463745 2.25396729 C-4.75180243 0.06541061 -3.80557753 0.00317027 0 0 Z " fill="#999999" transform="translate(235.03463745117188,87.74603271484375)"/>
<path d="M0 0 C2.0360882 1.27754554 4.04109119 2.60699818 6 4 C9.12802845 4.33218192 9.12802845 4.33218192 11.25 2 C14 0 14 0 17.4375 -0.5625 C22.12108584 0.17701355 23.95666217 1.36284015 27 5 C28.16439887 9.04022965 27.71331022 12.4213173 25.9921875 16.23046875 C21.57988213 23.35319028 14.85291982 31.68874579 7 35 C-11.53431526 18.88968975 -11.53431526 18.88968975 -12.375 10.0625 C-12.28301495 5.95383449 -10.97941228 3.89178251 -8 1 C-5.13391871 -0.43304064 -3.18699217 -0.30644155 0 0 Z " fill="#FCFAF9" transform="translate(431,210)"/>
<path d="M0 0 C2.86632997 1.05098766 3.83006643 1.66862954 5.25 4.4375 C6 7 6 7 6 10 C6.66 10 7.32 10 8 10 C8.17555989 20.99987172 8.34153884 31.99986942 8.5 43 C8.51187725 43.82413139 8.5237545 44.64826279 8.53599167 45.49736786 C8.8942483 70.54062608 9.09326886 95.57914753 9.0625 120.625 C9.06164398 121.32695496 9.06078796 122.02890991 9.05990601 122.75213623 C9.04885057 131.16811686 9.02931664 139.5840626 9 148 C7.02 148 5.04 148 3 148 C3.00222061 147.28069809 3.00444122 146.56139618 3.00672913 145.82029724 C3.10920214 110.84757406 3.08383649 75.87748474 2.65256882 40.90684891 C2.6250364 38.56559514 2.60118909 36.2243305 2.57839966 33.88302612 C2.54200153 30.19272546 2.49584613 26.50267394 2.44199944 22.81258774 C2.41493907 20.81850122 2.39684124 18.82429934 2.37904358 16.83010864 C2.28009867 10.86557433 2.07350924 5.62030136 0 0 Z " fill="#545454" transform="translate(368,103)"/>
<path d="M0 0 C4.58627925 2.08766116 8.40141156 4.60118462 11 9 C11.84340953 14.45556797 11.69345092 19.44666993 9.4375 24.5 C5.28924979 28.7546156 1.969376 30.68740064 -3.9375 31.625 C-9.03728882 31.34719049 -12.498468 28.517631 -16 25 C-18.97053052 20.63703329 -19.64280221 17.23424654 -19 12 C-15.5661361 4.03343576 -9.36849032 -2.24416308 0 0 Z " fill="#FE3A5F" transform="translate(486,140)"/>
<path d="M0 0 C0.8245166 -0.0038269 1.6490332 -0.00765381 2.49853516 -0.01159668 C4.23666611 -0.01431097 5.97483825 -0.00698358 7.71289062 0.00976562 C10.36681558 0.03118395 13.0180338 0.00994945 15.671875 -0.015625 C17.36458928 -0.01298164 19.05730189 -0.00785647 20.75 0 C21.93456787 -0.01214539 21.93456787 -0.01214539 23.14306641 -0.02453613 C27.03798513 0.04144728 28.98230973 0.29028097 32.3828125 2.37695312 C34.375 4.53125 34.375 4.53125 34.875 7.53125 C34.29682695 11.00028833 33.99223654 12.18301413 31.375 14.53125 C28.2566366 15.1403434 25.16818109 15.06716377 22 15.02734375 C20.61868896 15.0295266 20.61868896 15.0295266 19.20947266 15.03175354 C17.26266313 15.03009367 15.3158406 15.01852256 13.36914062 14.99780273 C10.38615281 14.96885822 7.40494266 14.97718961 4.421875 14.99023438 C2.53124135 14.98399674 0.64061331 14.97560561 -1.25 14.96484375 C-2.14380371 14.96777939 -3.03760742 14.97071503 -3.95849609 14.97373962 C-4.78945801 14.96105545 -5.62041992 14.94837128 -6.4765625 14.93530273 C-7.20697754 14.92989975 -7.93739258 14.92449677 -8.68994141 14.91893005 C-11.20882309 14.41428374 -12.09213749 13.56738643 -13.625 11.53125 C-14.125 8.09375 -14.125 8.09375 -13.625 4.53125 C-9.48543923 -0.01820845 -5.7703572 -0.05916353 0 0 Z " fill="#232323" transform="translate(277.625,100.46875)"/>
<path d="M0 0 C2.64 0.33 5.28 0.66 8 1 C8 1.66 8 2.32 8 3 C8.7425 3.226875 9.485 3.45375 10.25 3.6875 C15.03846629 5.97290437 16.93029876 9.5081486 18.75 14.3125 C19.1625 15.529375 19.575 16.74625 20 18 C20.66 18 21.32 18 22 18 C22 19.65 22 21.3 22 23 C22.66 23 23.32 23 24 23 C24 27.62 24 32.24 24 37 C24.33 37 24.66 37 25 37 C25.02539086 44.15331259 25.0428841 51.30661352 25.05493164 58.45996094 C25.05995504 60.89258254 25.06677491 63.32520114 25.07543945 65.7578125 C25.08759226 69.25782007 25.09324832 72.75778765 25.09765625 76.2578125 C25.10281754 77.34240753 25.10797882 78.42700256 25.11329651 79.54446411 C25.11366411 84.51167279 24.86184079 89.09818906 24 94 C24.33 94.99 24.66 95.98 25 97 C25.09768147 99.75351161 25.13975739 102.48088359 25.1328125 105.234375 C25.13479141 106.46815887 25.13479141 106.46815887 25.1368103 107.72686768 C25.13872711 110.40128341 25.13239577 113.07559492 25.125 115.75 C25.12411377 116.65250488 25.12322754 117.55500977 25.12231445 118.48486328 C25.10624464 132.34693306 24.83517205 146.16000601 24 160 C23.01 160 22.02 160 21 160 C20.99337971 159.3040784 20.98675941 158.6081568 20.97993851 157.89114666 C20.81716621 140.92120126 20.63288116 123.9516377 20.42494583 106.98218822 C20.32490116 98.77571682 20.23201439 90.56928328 20.15625 82.36254883 C20.0901592 75.205649 20.01036113 68.04905245 19.91441989 60.8924883 C19.86413682 57.10663095 19.82050399 53.32097152 19.79331207 49.53487206 C19.7674435 45.96328783 19.72309956 42.3923868 19.66523361 38.82118225 C19.63875632 36.90186315 19.63128301 34.98231053 19.62460327 33.06282043 C19.47280233 25.1225427 18.74339954 16.70562036 13.60806656 10.25027752 C11.89197978 8.56565179 11.89197978 8.56565179 8.9375 6.4375 C7.89464844 5.63183594 6.85179687 4.82617188 5.77734375 3.99609375 C3.87591494 2.62952536 1.94830234 1.29886823 0 0 Z " fill="#B4B4B4" transform="translate(359,91)"/>
<path d="M0 0 C2.23151788 6.55109892 0.04300603 15.11256217 -2.625 21.3125 C-3.07875 22.199375 -3.5325 23.08625 -4 24 C-3.17242187 24.09539062 -2.34484375 24.19078125 -1.4921875 24.2890625 C2.62513862 25.12726536 6.07650293 26.62407373 9.875 28.375 C15.19143832 30.79249411 20.51875052 32.98029116 26 35 C28.35105314 35.96504377 30.6713447 36.98121331 33 38 C33 38.33 33 38.66 33 39 C12.54 39 -7.92 39 -29 39 C-28 37 -28 37 -26.07421875 36.33203125 C-25.28660156 36.16058594 -24.49898438 35.98914063 -23.6875 35.8125 C-22.90761719 35.63332031 -22.12773437 35.45414063 -21.32421875 35.26953125 C-18.90795241 34.98932557 -17.29757048 35.25867863 -15 36 C-15.495 34.515 -15.495 34.515 -16 33 C-18.31 32.67 -20.62 32.34 -23 32 C-22.34 31.67 -21.68 31.34 -21 31 C-21 30.34 -21 29.68 -21 29 C-19.96939453 28.80083984 -19.96939453 28.80083984 -18.91796875 28.59765625 C-17.56638672 28.33275391 -17.56638672 28.33275391 -16.1875 28.0625 C-15.29417969 27.88847656 -14.40085937 27.71445313 -13.48046875 27.53515625 C-10.88602829 27.02258847 -10.88602829 27.02258847 -8 26 C-7.67 23.36 -7.34 20.72 -7 18 C-7.99 17.67 -8.98 17.34 -10 17 C-9.34 16.01 -8.68 15.02 -8 14 C-13.445 13.505 -13.445 13.505 -19 13 C-18.67 12.34 -18.34 11.68 -18 11 C-16.37509046 10.97301811 -14.75005367 10.95361243 -13.125 10.9375 C-11.76761719 10.92009766 -11.76761719 10.92009766 -10.3828125 10.90234375 C-8 11 -8 11 -6 12 C-5.67 11.01 -5.34 10.02 -5 9 C-4.67 10.65 -4.34 12.3 -4 14 C-3.67 11.03 -3.34 8.06 -3 5 C-2.34 5 -1.68 5 -1 5 C-0.67 3.35 -0.34 1.7 0 0 Z " fill="#030202" transform="translate(306,212)"/>
<path d="M0 0 C0 1.32 0 2.64 0 4 C0.66 4 1.32 4 2 4 C2.33 5.98 2.66 7.96 3 10 C3.99 9.67 4.98 9.34 6 9 C8.62890625 9.70703125 8.62890625 9.70703125 11.5625 10.8125 C12.53316406 11.16957031 13.50382812 11.52664062 14.50390625 11.89453125 C17 13 17 13 19 15 C19.99 14.67 20.98 14.34 22 14 C22.08226668 10.95613276 21.97608217 8.92824652 21 6 C21.66 6 22.32 6 23 6 C23 5.34 23 4.68 23 4 C18.52116304 4.44703986 18.52116304 4.44703986 15 7 C15 6.01 15 5.02 15 4 C18.53854164 1.72522323 20.70947373 2.00917294 24.75 2.875 C26.22726562 3.18050781 26.22726562 3.18050781 27.734375 3.4921875 C28.85585938 3.74355469 28.85585938 3.74355469 30 4 C29.67 4.99 29.34 5.98 29 7 C29.66 7.33 30.32 7.66 31 8 C30.51171875 14.0546875 30.51171875 14.0546875 30 16 C26.83759418 18.10827055 25.49342531 18.33817465 21.8125 18.625 C20.91144531 18.69976562 20.01039063 18.77453125 19.08203125 18.8515625 C18.39496094 18.90054688 17.70789063 18.94953125 17 19 C17.33 19.99 17.66 20.98 18 22 C19.65 22.33 21.3 22.66 23 23 C23 23.99 23 24.98 23 26 C22.11248047 26.07347656 22.11248047 26.07347656 21.20703125 26.1484375 C16.17947352 26.60904437 16.17947352 26.60904437 11.375 28.0625 C7.99623484 29.39622309 5.59234357 29.5225227 2 29 C-0.1875 26.4375 -0.1875 26.4375 -2 23 C-2.55880859 22.13568359 -2.55880859 22.13568359 -3.12890625 21.25390625 C-5.61237929 17.36861218 -6.54672033 14.59245077 -6 10 C-5.67 9.67 -5.34 9.34 -5 9 C-4.72046781 6.9412232 -4.55265649 4.88271568 -4.37890625 2.8125 C-4.25386719 2.214375 -4.12882812 1.61625 -4 1 C-2 0 -2 0 0 0 Z " fill="#4B3E43" transform="translate(268,222)"/>
<path d="M0 0 C4.59840854 2.10590833 8.07958794 4.84158718 11 9 C12.49752378 14.05414275 11.07729914 18.43684887 9 23.125 C6.20109525 28.11469092 3.17144566 32.33797715 -2 35 C-6.71141208 35.94228242 -11.62888488 36.43942956 -15.87890625 33.859375 C-17.25 32.5 -17.25 32.5 -19 30 C-17.88273561 26.64820682 -17.04550033 25.98292595 -14.375 23.8125 C-7.99021799 18.39232534 -1.2488927 12.48892699 -0.375 3.75 C-0.25125 2.5125 -0.1275 1.275 0 0 Z " fill="#DC2E4D" transform="translate(458,216)"/>
<path d="M0 0 C2.89843626 0.50722634 4.32182537 1.50134477 6.5 3.4375 C7.03625 3.128125 7.5725 2.81875 8.125 2.5 C11.07934184 1.17832076 13.24363877 0.50395635 16.5 0.4375 C19.48243569 2.64190899 21.28923034 4.04916942 21.859375 7.8046875 C21.00201135 14.08580814 14.70940316 19.61921984 10 23.5625 C9.175 24.18125 8.35 24.8 7.5 25.4375 C-6.06003666 14.48516269 -6.06003666 14.48516269 -6.8125 7.5625 C-6.5 4.4375 -6.5 4.4375 -4.8125 2.0625 C-2.5 0.4375 -2.5 0.4375 0 0 Z " fill="#FCF8F7" transform="translate(488.5,184.5625)"/>
<path d="M0 0 C0.66 0 1.32 0 2 0 C1.68281006 1.05123047 1.36562012 2.10246094 1.03881836 3.18554688 C-0.41766891 9.08245406 -0.47251584 14.98254759 -0.62109375 21.03125 C-0.63965361 21.69660263 -0.65821346 22.36195526 -0.67733574 23.04747009 C-1.30876008 45.95520444 -1.11097539 68.88460156 -1.06866455 91.79840088 C-1.05826765 98.04137832 -1.05383258 104.28436007 -1.04882812 110.52734375 C-1.03823781 122.6849068 -1.02126693 134.84245124 -1 147 C-2.32 147 -3.64 147 -5 147 C-5.02338141 133.88912652 -5.04104447 120.77825817 -5.05181217 107.66736794 C-5.05698543 101.57657753 -5.06397936 95.48580161 -5.07543945 89.39501953 C-5.08646931 83.49459063 -5.09231841 77.59417546 -5.09487724 71.69373703 C-5.09669591 69.46560831 -5.10024498 67.23748016 -5.10573006 65.00935745 C-5.13405365 53.0037948 -5.01031252 41.01603705 -4.58764648 29.01708984 C-4.55298059 27.95474436 -4.51831469 26.89239887 -4.4825983 25.7978611 C-3.60823406 3.60823406 -3.60823406 3.60823406 0 0 Z " fill="#BABABA" transform="translate(205,104)"/>
<path d="M0 0 C5.46341463 2.92682927 5.46341463 2.92682927 7 6 C7.50536707 11.14480246 7.86469264 15.53896761 5.1875 20.0625 C1.53865458 23.29433451 -0.90957466 24.55775357 -5.86328125 24.45703125 C-9.76758941 23.62192329 -12.48213739 20.99954067 -15 18 C-16.20643566 14.38069302 -16.32268559 11.80768995 -16 8 C-12.01299811 0.71341035 -7.99339943 -1.14385954 0 0 Z " fill="#FE375D" transform="translate(449,129)"/>
<path d="M0 0 C0.33 0.99 0.66 1.98 1 3 C1.721875 2.34 2.44375 1.68 3.1875 1 C6 -1 6 -1 8.5625 -1.5 C11.89430988 -0.81655182 13.08500778 0.20116521 15 3 C15.30789152 7.51574235 13.51460034 9.8470259 10.6875 13.125 C8.18722308 15.81048262 5.64726867 18.45862208 3 21 C-0.09862934 19.6213147 -2.24123432 18.02976802 -4.625 15.625 C-5.21539062 15.03976563 -5.80578125 14.45453125 -6.4140625 13.8515625 C-8.90604042 10.94220897 -9.92285131 8.75605717 -10.3125 4.9375 C-10 2 -10 2 -8.9375 0.0625 C-5.87530347 -1.61676907 -3.30629059 -0.68621125 0 0 Z " fill="#FCF8F7" transform="translate(449,167)"/>
<path d="M0 0 C4 2 4 2 5.25 4.4375 C6 7 6 7 6 10 C6.66 10 7.32 10 8 10 C8.17555989 20.99987172 8.34153884 31.99986942 8.5 43 C8.51187725 43.82413139 8.5237545 44.64826279 8.53599167 45.49736786 C8.8942483 70.54062608 9.09326886 95.57914753 9.0625 120.625 C9.06164398 121.32695496 9.06078796 122.02890991 9.05990601 122.75213623 C9.04885057 131.16811686 9.02931664 139.5840626 9 148 C8.01 148 7.02 148 6 148 C6.00222061 147.34777969 6.00444122 146.69555939 6.00672913 146.02357483 C6.0346588 137.36989748 6.05213618 128.71621463 6.0625 120.0625 C6.06335602 119.35296803 6.06421204 118.64343605 6.06509399 117.91240311 C6.09179342 92.75064321 5.8682767 67.59643874 5.5 42.4375 C5.48804218 41.62022053 5.47608437 40.80294106 5.46376419 39.96089554 C5.31693726 29.97380498 5.16244406 19.98684921 5 10 C4.34 10 3.68 10 3 10 C2.01 6.7 1.02 3.4 0 0 Z " fill="#737373" transform="translate(368,103)"/>
<path d="M0 0 C0.66 0 1.32 0 2 0 C2 1.65 2 3.3 2 5 C2.66 5 3.32 5 4 5 C4 9.62 4 14.24 4 19 C4.33 19 4.66 19 5 19 C5.02539086 26.15331259 5.0428841 33.30661352 5.05493164 40.45996094 C5.05995504 42.89258254 5.06677491 45.32520114 5.07543945 47.7578125 C5.08759226 51.25782007 5.09324832 54.75778765 5.09765625 58.2578125 C5.10281754 59.34240753 5.10797882 60.42700256 5.11329651 61.54446411 C5.11366411 66.51167279 4.86184079 71.09818906 4 76 C4.33 76.99 4.66 77.98 5 79 C5.09761 81.83529416 5.13990433 84.64519974 5.1328125 87.48046875 C5.13376923 88.32611893 5.13472595 89.1717691 5.13571167 90.04304504 C5.1363929 91.84111607 5.13454257 93.63918955 5.13037109 95.43725586 C5.12510827 98.13205843 5.13027246 100.82668761 5.13671875 103.52148438 C5.14036496 114.0557365 4.81339218 124.4953828 4 135 C3.67 135 3.34 135 3 135 C2.98592149 134.01104894 2.98592149 134.01104894 2.97155857 133.00211906 C2.74276041 116.95211309 2.50892845 100.90218951 2.26950932 84.85233879 C2.15384868 77.09072049 2.03988529 69.32908423 1.92993164 61.56738281 C1.83408009 54.80146305 1.73502957 48.03559893 1.63215441 41.26978219 C1.57780576 37.68810154 1.52504776 34.10641355 1.4761219 30.52465439 C1.42141407 26.52400133 1.35956383 22.523489 1.29711914 18.52294922 C1.28201294 17.3382756 1.26690674 16.15360199 1.25134277 14.93302917 C1.2331398 13.83935532 1.21493683 12.74568146 1.19618225 11.61886597 C1.18235536 10.67310637 1.16852846 9.72734676 1.15428257 8.75292778 C0.98761757 5.77905525 0.53903578 2.92740661 0 0 Z " fill="#C8C8C8" transform="translate(379,109)"/>
<path d="M0 0 C1.0402533 -0.00563965 2.08050659 -0.0112793 3.15228271 -0.01708984 C4.29313324 -0.01304138 5.43398376 -0.00899292 6.60940552 -0.00482178 C7.81125488 -0.00832642 9.01310425 -0.01183105 10.25137329 -0.01544189 C13.549035 -0.02274394 16.84644623 -0.02102082 20.14409399 -0.01468372 C23.59576093 -0.00962194 27.04741712 -0.01431589 30.49908447 -0.01745605 C36.29792197 -0.02109616 42.09670856 -0.01629648 47.89553833 -0.0067749 C54.59554219 0.0040995 61.29542422 0.00059167 67.99542511 -0.01042771 C73.74924221 -0.0195116 79.50302268 -0.02078017 85.25684464 -0.01555037 C88.69262126 -0.0124354 92.12834069 -0.01200811 95.56411362 -0.01862335 C99.39696716 -0.02548728 103.22968501 -0.015966 107.06253052 -0.00482178 C108.19933258 -0.00887024 109.33613464 -0.0129187 110.50738525 -0.01708984 C112.07622467 -0.00863037 112.07622467 -0.00863037 113.67675781 0 C115.03562764 0.00113108 115.03562764 0.00113108 116.42194939 0.002285 C119.236345 0.28078223 121.40026898 1.0903711 123.96536255 2.25396729 C123.96536255 2.91396729 123.96536255 3.57396729 123.96536255 4.25396729 C125.94536255 4.74896729 125.94536255 4.74896729 127.96536255 5.25396729 C124.5869949 6.36876636 124.03386229 6.28171643 120.48355103 4.8434906 C114.9676696 2.61361272 109.55352551 2.81413255 103.67434692 2.82159424 C102.46373596 2.81140259 101.253125 2.80121094 100.00582886 2.79071045 C96.70882396 2.76580832 93.41208704 2.75387583 90.11500359 2.74785638 C86.66096117 2.7384348 83.20704568 2.71222857 79.75308228 2.68785095 C73.22266967 2.64428579 66.69228185 2.61567772 60.16176844 2.59252757 C52.7227151 2.56542213 45.28379009 2.52151409 37.84482861 2.47623885 C22.55173935 2.38353571 7.25862589 2.31178964 -8.03463745 2.25396729 C-4.75180243 0.06541061 -3.80557753 0.00317027 0 0 Z " fill="#9F9F9F" transform="translate(235.03463745117188,87.74603271484375)"/>
<path d="M0 0 C2.45261797 0.00536945 4.9050535 0.00001831 7.35766602 -0.00634766 C14.76869408 -0.00911342 22.05354958 0.12046175 29.4296875 0.91650391 C34.62458362 1.36792033 39.84767729 1.12939993 45.05493164 1.00341797 C45.89797852 0.99246094 46.74102539 0.98150391 47.60961914 0.97021484 C48.73787109 0.94495728 48.73787109 0.94495728 49.88891602 0.91918945 C51.89086914 1.13037109 51.89086914 1.13037109 54.89086914 3.13037109 C53.62255249 3.14583229 53.62255249 3.14583229 52.32861328 3.16160583 C2.96150909 3.74337168 2.96150909 3.74337168 -46.40185547 4.57107544 C-48.40182753 4.61034646 -50.40182823 4.64818721 -52.40185547 4.68453979 C-55.13382187 4.73487312 -57.86560244 4.79096649 -60.59741211 4.84912109 C-61.75627678 4.86943138 -61.75627678 4.86943138 -62.93855286 4.89015198 C-67.41784135 4.99466777 -71.69703429 5.41322847 -76.10913086 6.13037109 C-72.25589693 2.12263162 -67.72195317 2.57975004 -62.51538086 2.43505859 C-61.57287476 2.39728302 -60.63036865 2.35950745 -59.65930176 2.32058716 C-56.64290723 2.20223673 -53.62625595 2.1031483 -50.60913086 2.00537109 C-47.62834178 1.89677693 -44.64772838 1.78418702 -41.66712952 1.67050171 C-39.7355916 1.59698567 -37.80397979 1.52538546 -35.87229919 1.45571899 C-31.1855623 1.28043276 -26.53262074 1.03924292 -21.86303711 0.58349609 C-14.58748626 -0.09363438 -7.30062631 -0.01899873 0 0 Z " fill="#D8D8D8" transform="translate(298.109130859375,82.86962890625)"/>
<path d="M0 0 C3.38433676 1.40041521 5.37538603 2.66526605 7 6 C7.54335619 12.26094519 5.57370985 16.58988365 1.6171875 21.33203125 C-0.43842782 23.45219488 -2.24141255 24.9110839 -5 26 C-8.84424753 25.87986726 -11.18167521 23.42689079 -14 21 C-12.91742201 17.75226604 -12.34169802 17.2557489 -9.75 15.25 C-5.30749664 11.56619577 -1.74834916 7.70557004 -0.1875 2.0625 C-0.0946875 1.0415625 -0.0946875 1.0415625 0 0 Z " fill="#DC2E4D" transform="translate(510,190)"/>
<path d="M0 0 C7.97360935 -0.09371083 15.94713673 -0.16251781 23.92116451 -0.20867443 C28.37297071 -0.23452486 32.82439288 -0.26778733 37.27597046 -0.32040405 C41.53021135 -0.36974438 45.78390405 -0.39354543 50.03841972 -0.39927101 C51.61665099 -0.40544934 53.19487688 -0.42015726 54.77293587 -0.44428062 C64.54036587 -0.58666279 72.38375279 0.45182291 81.21044922 5.11474609 C81.21044922 5.77474609 81.21044922 6.43474609 81.21044922 7.11474609 C83.19044922 7.60974609 83.19044922 7.60974609 85.21044922 8.11474609 C84.88044922 8.77474609 84.55044922 9.43474609 84.21044922 10.11474609 C82.23044922 9.12474609 82.23044922 9.12474609 80.21044922 8.11474609 C80.21044922 7.45474609 80.21044922 6.79474609 80.21044922 6.11474609 C78.99357422 5.99099609 77.77669922 5.86724609 76.52294922 5.73974609 C74.04163387 5.48740894 72.19717248 5.10895032 69.89772987 4.10516071 C67.05374513 3.05699179 64.99340375 2.86096743 61.97567749 2.85404968 C60.94134583 2.84696487 59.90701416 2.83988007 58.84133911 2.83258057 C57.71710541 2.83505798 56.5928717 2.8375354 55.43457031 2.84008789 C54.24206665 2.83497696 53.04956299 2.82986603 51.82092285 2.82460022 C48.55607409 2.81309144 45.29138299 2.81062964 42.0265193 2.81316352 C39.2934348 2.81423571 36.56037351 2.80934301 33.82729399 2.8045581 C27.37117304 2.79346813 20.91511025 2.79302118 14.45898438 2.79907227 C7.82150087 2.80509836 1.18423007 2.7928348 -5.45321715 2.7715022 C-11.16810593 2.75381692 -16.88292747 2.7478961 -22.59784257 2.75113994 C-26.00363786 2.75294357 -29.40928176 2.75041047 -32.81505203 2.7364254 C-36.62263349 2.72402279 -40.42973038 2.73087721 -44.23730469 2.74243164 C-45.34939301 2.7347879 -46.46148132 2.72714417 -47.60726929 2.7192688 C-54.76063521 2.76699856 -60.99114513 3.88952627 -67.78955078 6.11474609 C-67.78955078 5.45474609 -67.78955078 4.79474609 -67.78955078 4.11474609 C-58.2609133 0.08704937 -48.25036952 0.53913098 -38.10205078 0.42724609 C-36.06721699 0.3973428 -34.03238636 0.36722443 -31.99755859 0.33691406 C-26.02008777 0.25571347 -20.04256522 0.20317983 -14.0647583 0.15374756 C-9.37637751 0.11303384 -4.68821886 0.05596498 0 0 Z " fill="#C7C7C7" transform="translate(286.78955078125,85.88525390625)"/>
<path d="M0 0 C1.65 0.33 3.3 0.66 5 1 C5.53293835 2.74635165 6.05090663 4.49727652 6.5625 6.25 C6.85253906 7.22453125 7.14257812 8.1990625 7.44140625 9.203125 C7.99249836 11.96243932 7.93789609 13.3912824 7 16 C7.99 16.33 8.98 16.66 10 17 C10 17.99 10 18.98 10 20 C7.69 20 5.38 20 3 20 C3 19.34 3 18.68 3 18 C2.34 18 1.68 18 1 18 C1.66 18.99 2.32 19.98 3 21 C3.99 21.165 4.98 21.33 6 21.5 C6.99 21.665 7.98 21.83 9 22 C11 25 11 25 10.625 27.1875 C10.41875 27.785625 10.2125 28.38375 10 29 C6.125 28.125 6.125 28.125 5 27 C3.28184562 29.25167846 3.28184562 29.25167846 2 32 C2.69140351 34.30287793 2.69140351 34.30287793 4 36 C1.69 36 -0.62 36 -3 36 C-2.67 34.68 -2.34 33.36 -2 32 C-2.66 32 -3.32 32 -4 32 C-4 31.34 -4 30.68 -4 30 C-2.35 29.67 -0.7 29.34 1 29 C-0.24702151 22.64549677 -1.57364259 16.31672565 -3 10 C-2.34 10 -1.68 10 -1 10 C-0.67 6.7 -0.34 3.4 0 0 Z " fill="#4A3A3E" transform="translate(294,186)"/>
<path d="M0 0 C2.4375 0.75 2.4375 0.75 4.4375 1.75 C5.4275 1.09 6.4175 0.43 7.4375 -0.25 C9.72147032 0.09605611 11.37159037 0.71704519 13.4375 1.75 C13.77775361 5.41835926 13.80373402 7.21536373 11.6875 10.3046875 C10.945 11.07039062 10.2025 11.83609375 9.4375 12.625 C8.695 13.40617188 7.9525 14.18734375 7.1875 14.9921875 C6.61 15.57226562 6.0325 16.15234375 5.4375 16.75 C1.72662094 16.19172616 0.13798775 14.78559718 -2.3125 12 C-2.92609375 11.32453125 -3.5396875 10.6490625 -4.171875 9.953125 C-5.84189173 7.30736815 -5.92519291 5.82522724 -5.5625 2.75 C-3.85498162 0.05391835 -3.21096934 -0.3132653 0 0 Z " fill="#FCF4F4" transform="translate(478.5625,148.25)"/>
<path d="M0 0 C3.0390625 0.2421875 3.0390625 0.2421875 6.625 0.875 C8.40777344 1.18050781 8.40777344 1.18050781 10.2265625 1.4921875 C11.14179688 1.65976563 12.05703125 1.82734375 13 2 C12.67 2.99 12.34 3.98 12 5 C12.66 5.33 13.32 5.66 14 6 C13.51171875 12.0546875 13.51171875 12.0546875 13 14 C9.83759418 16.10827055 8.49342531 16.33817465 4.8125 16.625 C3.91144531 16.69976562 3.01039063 16.77453125 2.08203125 16.8515625 C1.39496094 16.90054688 0.70789063 16.94953125 0 17 C0 17.66 0 18.32 0 19 C-0.99 19 -1.98 19 -3 19 C-3 18.34 -3 17.68 -3 17 C-3.8353125 16.9071875 -3.8353125 16.9071875 -4.6875 16.8125 C-8.027159 15.6391063 -9.71500747 13.65553186 -12 11 C-12.64453125 8.83203125 -12.64453125 8.83203125 -13 7 C-12.09507812 7.30744141 -12.09507812 7.30744141 -11.171875 7.62109375 C-9.97304688 8.02521484 -9.97304688 8.02521484 -8.75 8.4375 C-7.96109375 8.70433594 -7.1721875 8.97117188 -6.359375 9.24609375 C-4.0505 10.02497154 -4.0505 10.02497154 -1.828125 10.47265625 C0 11 0 11 2 13 C2.99 12.67 3.98 12.34 5 12 C5.08226668 8.95613276 4.97608217 6.92824652 4 4 C4.66 4 5.32 4 6 4 C6 3.34 6 2.68 6 2 C1.52116304 2.44703986 1.52116304 2.44703986 -2 5 C-2 2 -2 2 0 0 Z " fill="#2E2226" transform="translate(285,224)"/>
<path d="M0 0 C4.23037652 2.67636065 4.23037652 2.67636065 6 5 C6.69104965 9.64112358 5.37145032 13.28363153 3.25 17.375 C0.93553905 20.07520444 -0.71732099 21.63888919 -4 23 C-7.06927932 22.85384384 -8.48241325 22.44619548 -10.8125 20.4375 C-11.204375 19.963125 -11.59625 19.48875 -12 19 C-10.63198436 15.86921793 -9.10775977 14.00515489 -6.5625 11.75 C-2.81684884 8.1526142 -1.4736826 4.94117107 0 0 Z " fill="#DC2E4D" transform="translate(464,170)"/>
<path d="M0 0 C0.33 0 0.66 0 1 0 C2.19210762 11.53761816 2.12867356 23.02830454 2.09765625 34.61328125 C2.09578748 36.67978379 2.09436575 38.74628677 2.09336853 40.81278992 C2.08957948 46.20984149 2.0797807 51.60686546 2.06866455 57.00390625 C2.05837211 62.527991 2.05385425 68.05208027 2.04882812 73.57617188 C2.03815464 84.3841266 2.02112245 95.19206099 2 106 C1.34 106 0.68 106 0 106 C-0.80632487 98.49855186 -1.1422389 91.11221897 -1.09375 83.5703125 C-1.09016479 82.468013 -1.08657959 81.3657135 -1.08288574 80.23001099 C-1.01338795 65.22865541 -0.77025882 50.22845114 -0.53643799 35.22894287 C-0.47466907 31.23858783 -0.41518211 27.24819873 -0.35546875 23.2578125 C-0.23913675 15.50517449 -0.12039755 7.75257606 0 0 Z " fill="#A1A1A1" transform="translate(202,145)"/>
<path d="M0 0 C2.375 1.625 2.375 1.625 4 4 C4.65454929 7.84547708 4.29284835 9.50107319 2.3125 12.875 C0 15 0 15 -2.4375 15.625 C-6.19064408 14.709599 -7.68447809 13.04325737 -10 10 C-10.6829669 6.28162465 -10.51323431 4.75011169 -8.375 1.625 C-5.28813568 -0.48706506 -3.6717087 -0.61195145 0 0 Z " fill="#FE385E" transform="translate(469,101)"/>
<path d="M0 0 C0.66 1.32 1.32 2.64 2 4 C2.66 4 3.32 4 4 4 C4.66 3.34 5.32 2.68 6 2 C6.36552803 3.41377782 6.71695495 4.83120576 7.0625 6.25 C7.25972656 7.03890625 7.45695312 7.8278125 7.66015625 8.640625 C8.01847417 11.12825747 7.67152083 12.61334893 7 15 C8.25296875 14.91621094 9.5059375 14.83242187 10.796875 14.74609375 C12.44789643 14.64290491 14.09893927 14.54005822 15.75 14.4375 C16.9875 14.35338867 16.9875 14.35338867 18.25 14.26757812 C19.04921875 14.21923828 19.8484375 14.17089844 20.671875 14.12109375 C21.4050293 14.0739624 22.13818359 14.02683105 22.89355469 13.97827148 C25.08357226 14.00086207 26.90487187 14.38512544 29 15 C26.59940183 16.20029908 25.10639351 16.11459743 22.4296875 16.09765625 C21.53378906 16.09443359 20.63789063 16.09121094 19.71484375 16.08789062 C18.77769531 16.07951172 17.84054687 16.07113281 16.875 16.0625 C15.93011719 16.05798828 14.98523438 16.05347656 14.01171875 16.04882812 C11.67441613 16.03702357 9.33723939 16.02055759 7 16 C7 16.66 7 17.32 7 18 C17.89 18 28.78 18 40 18 C40 18.33 40 18.66 40 19 C29.11 19 18.22 19 7 19 C7 20.32 7 21.64 7 23 C6.34 23 5.68 23 5 23 C4.67 22.34 4.34 21.68 4 21 C2.02111039 20.27306096 0.02045442 19.60183749 -2 19 C-2.33 19.99 -2.66 20.98 -3 22 C-3.33 20.02 -3.66 18.04 -4 16 C-3.34 16 -2.68 16 -2 16 C-2 16.66 -2 17.32 -2 18 C0.31 18 2.62 18 5 18 C5 17.01 5 16.02 5 15 C3.68 14.67 2.36 14.34 1 14 C1.18433594 13.44828125 1.36867188 12.8965625 1.55859375 12.328125 C2.0918802 9.51539295 1.68538146 7.53464653 1.0625 4.75 C0.86785156 3.85796875 0.67320312 2.9659375 0.47265625 2.046875 C0.31667969 1.37140625 0.16070312 0.6959375 0 0 Z " fill="#120E12" transform="translate(299,188)"/>
<path d="M0 0 C0.99 0.33 1.98 0.66 3 1 C3.21755666 6.4389165 3.10428384 10.87080814 1 16 C2.32 16 3.64 16 5 16 C5.22304441 17.74818591 5.4278645 19.49870323 5.625 21.25 C5.74101562 22.22453125 5.85703125 23.1990625 5.9765625 24.203125 C6.00112537 27.13429393 5.5312717 28.54528964 4 31 C2.25 30.9375 2.25 30.9375 0 30 C-3.18170608 25.49258305 -4.54990817 22.63655874 -4 17 C-2.68 16.34 -1.36 15.68 0 15 C0 10.05 0 5.1 0 0 Z " fill="#605259" transform="translate(262,192)"/>
<path d="M0 0 C2.64 0.33 5.28 0.66 8 1 C8 1.66 8 2.32 8 3 C8.7425 3.226875 9.485 3.45375 10.25 3.6875 C15.5940768 6.23808211 17.22659217 10.28540566 19.1875 15.625 C19.80229448 17.41304769 20.40792028 19.20430281 21 21 C21.33 21.99 21.66 22.98 22 24 C22.08971327 26.22336607 22.11757853 28.44938893 22.11352539 30.67456055 C22.11367142 31.347995 22.11381744 32.02142944 22.1139679 32.715271 C22.11327175 34.93911979 22.10549332 37.16288461 22.09765625 39.38671875 C22.09579101 40.92942764 22.09436761 42.47213711 22.09336853 44.0148468 C22.08955169 48.07383868 22.07972851 52.13279473 22.06866455 56.19177246 C22.05843252 60.33422359 22.05386707 64.4766805 22.04882812 68.61914062 C22.03810551 76.74611018 22.02103907 84.87305063 22 93 C21.67 93 21.34 93 21 93 C20.99635437 92.18726624 20.99270874 91.37453247 20.98895264 90.53717041 C20.95088254 82.82938731 20.89381739 75.12207747 20.81609726 67.41460037 C20.77680425 63.45330544 20.74452777 59.49222676 20.72900391 55.53076172 C20.71371605 51.69846081 20.67906072 47.86675516 20.63169098 44.03472137 C20.61700082 42.58216311 20.60896619 41.12951981 20.60811615 39.67688751 C20.59641455 29.69505989 20.24040229 19.30050286 13.75 11.1875 C12.8425 10.465625 11.935 9.74375 11 9 C9.62244079 7.77370219 8.24761274 6.54433195 6.875 5.3125 C4.6297301 3.34242855 2.49574394 1.66382929 0 0 Z " fill="#BCBCBC" transform="translate(359,91)"/>
<path d="M0 0 C1.0725 0.165 2.145 0.33 3.25 0.5 C6.66188834 0.95491845 8.7226792 0.77113431 12 0 C13 1 13 1 13.4375 3.6875 C12.80565824 8.47144475 10.57863809 9.86869167 7 13 C3.16309363 11.43681592 0.60845111 9.2046685 -2 6 C-1.80952381 1.80952381 -1.80952381 1.80952381 0 0 Z " fill="#FCF5F5" transform="translate(439,135)"/>
<path d="M0 0 C2 1.125 2 1.125 4 3 C4.70642169 6.97362199 4.16154813 8.7103275 2.1875 12.25 C0 15 0 15 -3 17 C-5.5625 16.8125 -5.5625 16.8125 -8 16 C-8.66 15.01 -9.32 14.02 -10 13 C-9.04287109 11.96939453 -9.04287109 11.96939453 -8.06640625 10.91796875 C-7.24011719 10.01691406 -6.41382813 9.11585938 -5.5625 8.1875 C-4.73878906 7.29417969 -3.91507812 6.40085938 -3.06640625 5.48046875 C-0.83280912 3.10551917 -0.83280912 3.10551917 0 0 Z " fill="#DC2D4C" transform="translate(493,152)"/>
<path d="M0 0 C2.5 1.75 2.5 1.75 4 4 C4 5.32 4 6.64 4 8 C-1.28 8 -6.56 8 -12 8 C-11 3 -11 3 -9.9375 1.1875 C-6.78858766 -0.74247853 -3.5277243 -0.64592135 0 0 Z " fill="#121212" transform="translate(355,243)"/>
<path d="M0 0 C2.34765625 0.8203125 2.34765625 0.8203125 5.0625 2.125 C5.96097656 2.54007813 6.85945313 2.95515625 7.78515625 3.3828125 C10 5 10 5 10.80859375 7.6796875 C10.87175781 8.44539062 10.93492187 9.21109375 11 10 C7.89448334 10 6.64738916 9.4606285 4 8 C4 6.68 4 5.36 4 4 C1.9377952 3.945652 -0.12482816 3.90705039 -2.1875 3.875 C-3.33605469 3.85179687 -4.48460937 3.82859375 -5.66796875 3.8046875 C-8.96398463 3.9978889 -11.03424564 4.62771027 -14 6 C-20.69072165 8.15463918 -20.69072165 8.15463918 -23 7 C-16.68871773 1.08317287 -10.257323 0.85763236 -2 1 C-1.34 0.67 -0.68 0.34 0 0 Z " fill="#1F171A" transform="translate(287,177)"/>
<path d="M0 0 C0.33 0.66 0.66 1.32 1 2 C1.556875 2.268125 2.11375 2.53625 2.6875 2.8125 C6.34367202 4.68999374 10.13506314 7.27012627 12 11 C12.99 11.66 13.98 12.32 15 13 C14 14 14 14 10.375 14.4375 C5.89791984 14.38103232 3.52204905 12.78123219 0.3515625 9.7265625 C-1.62535923 7.2011307 -2.0721725 5.17559008 -2 2 C-1.34 1.34 -0.68 0.68 0 0 Z " fill="#FD3E63" transform="translate(435,139)"/>
<path d="M0 0 C1.65 0.33 3.3 0.66 5 1 C5.50471197 2.76949612 6.00360685 4.54065223 6.5 6.3125 C6.7784375 7.29863281 7.056875 8.28476563 7.34375 9.30078125 C8 12 8 12 8 15 C5.84377121 16.30913891 4.42047902 17 1.875 17 C0 16 0 16 -1.375 13.3125 C-2.1037357 9.4502008 -1.41207837 7.60864472 0 4 C0 2.68 0 1.36 0 0 Z " fill="#4F3E41" transform="translate(294,186)"/>
<path d="M0 0 C3 0.25 3 0.25 5 2.25 C5.333728 5.38704316 5.52849028 7.41554166 3.8125 10.125 C1.31963619 11.67229478 -0.11967335 11.75405716 -3 11.25 C-4.875 9.5625 -4.875 9.5625 -6 7.25 C-5.67747519 2.7346526 -4.81889451 0.40157454 0 0 Z " fill="#FE4E6F" transform="translate(472,121.75)"/>
<path d="M0 0 C2.31 0 4.62 0 7 0 C7.66 1.32 8.32 2.64 9 4 C7.68 4.33 6.36 4.66 5 5 C4.938125 5.78375 4.87625 6.5675 4.8125 7.375 C4.544375 8.24125 4.27625 9.1075 4 10 C1.4375 11.3125 1.4375 11.3125 -1 12 C-4.03497942 7.62962963 -4.03497942 7.62962963 -3.875 4.75 C-3 3 -3 3 0 2 C0 1.34 0 0.68 0 0 Z " fill="#474A4D" transform="translate(218,118)"/>
<path d="M0 0 C0.66 0 1.32 0 2 0 C2.73570866 11.35093354 3.13947228 22.62526092 3 34 C2.01 34.495 2.01 34.495 1 35 C-0.50606515 31.98786971 -0.12160331 28.88717378 -0.09765625 25.5859375 C-0.0962413 24.85629791 -0.09482635 24.12665833 -0.09336853 23.37490845 C-0.08776531 21.04156415 -0.07521235 18.70831536 -0.0625 16.375 C-0.05748541 14.79427222 -0.05292243 13.21354293 -0.04882812 11.6328125 C-0.03779484 7.75517146 -0.02052811 3.87760193 0 0 Z " fill="#0E0D10" transform="translate(247,170)"/>
<path d="M0 0 C0.66 0 1.32 0 2 0 C1.67 1.32 1.34 2.64 1 4 C1.66 4 2.32 4 3 4 C3 3.34 3 2.68 3 2 C9.15234375 1.12109375 9.15234375 1.12109375 11 1 C11.33 1.33 11.66 1.66 12 2 C13.51928038 2.07179964 15.04167482 2.08392007 16.5625 2.0625 C17.38878906 2.05347656 18.21507812 2.04445313 19.06640625 2.03515625 C20.02353516 2.01775391 20.02353516 2.01775391 21 2 C20.67 3.32 20.34 4.64 20 6 C18.86111328 5.98259766 18.86111328 5.98259766 17.69921875 5.96484375 C16.70535156 5.95582031 15.71148437 5.94679688 14.6875 5.9375 C13.70136719 5.92589844 12.71523438 5.91429688 11.69921875 5.90234375 C8.90036151 5.87670138 8.90036151 5.87670138 6 7 C5.67 6.34 5.34 5.68 5 5 C3.02 5.33 1.04 5.66 -1 6 C-1.042721 4.33388095 -1.04063832 2.66617115 -1 1 C-0.67 0.67 -0.34 0.34 0 0 Z " fill="#545454" transform="translate(257,121)"/>
<path d="M0 0 C1.16144531 0.11085937 2.32289063 0.22171875 3.51953125 0.3359375 C4.39996094 0.43132812 5.28039062 0.52671875 6.1875 0.625 C6.1875 1.945 6.1875 3.265 6.1875 4.625 C4.2075 4.625 2.2275 4.625 0.1875 4.625 C-0.1425 3.965 -0.4725 3.305 -0.8125 2.625 C-3.3867273 1.52175973 -4.6094104 1.56407312 -7.3125 2.375 C-9.83509692 3.52331385 -9.83509692 3.52331385 -11.8125 5.25 C-14.30003895 6.96018303 -15.85647282 6.8713356 -18.8125 6.625 C-18.8125 7.615 -18.8125 8.605 -18.8125 9.625 C-19.8025 9.625 -20.7925 9.625 -21.8125 9.625 C-22.1425 8.965 -22.4725 8.305 -22.8125 7.625 C-19.5571153 3.71853836 -16.68312752 2.82129448 -11.8125 1.625 C-11.05453125 1.26921875 -10.2965625 0.9134375 -9.515625 0.546875 C-6.1144456 -0.61306479 -3.56154316 -0.35975183 0 0 Z " fill="#392E32" transform="translate(284.8125,180.375)"/>
<path d="M0 0 C0.99 0.66 1.98 1.32 3 2 C3.58909219 5.78702122 3.26202646 7.55358454 1.3125 10.875 C-1 13 -1 13 -3.75 13.3125 C-4.86375 13.1578125 -4.86375 13.1578125 -6 13 C-6.6796875 11.2265625 -6.6796875 11.2265625 -7 9 C-5.8203125 7.1484375 -5.8203125 7.1484375 -4.125 5.375 C-1.77069571 2.89368731 -1.77069571 2.89368731 0 0 Z " fill="#DC304F" transform="translate(453,138)"/>
<path d="M0 0 C0.99 0.66 1.98 1.32 3 2 C4.32 2 5.64 2 7 2 C7 2.99 7 3.98 7 5 C6.34 5 5.68 5 5 5 C5 8.3 5 11.6 5 15 C4.01 15.495 4.01 15.495 3 16 C3 14.02 3 12.04 3 10 C2.67 10.66 2.34 11.32 2 12 C-1.63 11.67 -5.26 11.34 -9 11 C-9 10.67 -9 10.34 -9 10 C-6.03 10 -3.06 10 0 10 C-0.99 8.35 -1.98 6.7 -3 5 C-2.34 4.67 -1.68 4.34 -1 4 C-0.34786708 1.97536745 -0.34786708 1.97536745 0 0 Z " fill="#25191C" transform="translate(298,212)"/>
<path d="M0 0 C6.74233419 -0.12910853 13.30386804 0.202163 20 1 C20 1.99 20 2.98 20 4 C13.32964627 5.13537936 6.59075233 5.87457064 0 4 C0 2.68 0 1.36 0 0 Z " fill="#484848" transform="translate(284,122)"/>
<path d="M0 0 C0.66 0.33 1.32 0.66 2 1 C1.979375 1.78375 1.95875 2.5675 1.9375 3.375 C1.81315937 5.98114961 1.81315937 5.98114961 3 8 C2.22265625 9.9453125 2.22265625 9.9453125 1.0625 12.125 C0.68222656 12.84945312 0.30195313 13.57390625 -0.08984375 14.3203125 C-0.39019531 14.87460938 -0.69054687 15.42890625 -1 16 C-2.33332095 13.3333581 -1.67102033 11.83319697 -1 9 C-1.99 8.67 -2.98 8.34 -4 8 C-3.34 7.01 -2.68 6.02 -2 5 C-5.63 4.67 -9.26 4.34 -13 4 C-12.67 3.34 -12.34 2.68 -12 2 C-10.37509046 1.97301811 -8.75005367 1.95361243 -7.125 1.9375 C-6.22007812 1.92589844 -5.31515625 1.91429687 -4.3828125 1.90234375 C-2 2 -2 2 0 3 C0 2.01 0 1.02 0 0 Z " fill="#120A0C" transform="translate(300,221)"/>
<path d="M0 0 C2 3 2 3 2 5 C2.66 5 3.32 5 4 5 C3.75390625 6.859375 3.75390625 6.859375 3 9 C1.15234375 10.265625 1.15234375 10.265625 -1.0625 11.25 C-1.79597656 11.58515625 -2.52945312 11.9203125 -3.28515625 12.265625 C-4.13400391 12.62914062 -4.13400391 12.62914062 -5 13 C-5.602537 6.97463002 -5.602537 6.97463002 -3.88671875 4.19921875 C-2.65378147 2.74400545 -1.33191067 1.36520843 0 0 Z " fill="#51444A" transform="translate(288,213)"/>
<path d="M0 0 C0.90492188 0.30744141 0.90492188 0.30744141 1.828125 0.62109375 C3.02695312 1.02521484 3.02695312 1.02521484 4.25 1.4375 C5.03890625 1.70433594 5.8278125 1.97117188 6.640625 2.24609375 C8.95462142 3.04070807 8.95462142 3.04070807 11.234375 3.41015625 C11.81703125 3.60480469 12.3996875 3.79945313 13 4 C13.33 4.99 13.66 5.98 14 7 C13.01 7.33 12.02 7.66 11 8 C10.67 8.66 10.34 9.32 10 10 C5.73794894 9.52643877 3.71306207 7.15301808 1 4 C0.35546875 1.83203125 0.35546875 1.83203125 0 0 Z " fill="#3C3134" transform="translate(272,231)"/>
<path d="M0 0 C5.90789791 0 8.90363653 3.1388406 13.046875 6.89453125 C14.90097723 8.89325346 16.03960832 10.46182198 17 13 C16.625 15.25 16.625 15.25 16 17 C16 16.34 16 15.68 16 15 C15.34 15 14.68 15 14 15 C13.67 14.01 13.34 13.02 13 12 C11.50153259 10.73345575 11.50153259 10.73345575 9.6875 9.625 C6.48056246 7.44980261 4.2986388 5.1499865 2 2 C1.34 1.34 0.68 0.68 0 0 Z " fill="#A3A3A3" transform="translate(360,94)"/>
<path d="M0 0 C0.33 0 0.66 0 1 0 C1 6.93 1 13.86 1 21 C1.66 21 2.32 21 3 21 C3 26.28 3 31.56 3 37 C2.34 37 1.68 37 1 37 C0.07191062 28.74973532 -0.1230629 20.6096172 -0.0625 12.3125 C-0.05798828 11.12205078 -0.05347656 9.93160156 -0.04882812 8.70507812 C-0.03717452 5.80333064 -0.02081559 2.90169374 0 0 Z " fill="#AAAAAA" transform="translate(201,214)"/>
<path d="M0 0 C1.27875 0.103125 2.5575 0.20625 3.875 0.3125 C4.95394531 0.39951172 4.95394531 0.39951172 6.0546875 0.48828125 C8 1 8 1 10 4 C9.625 6.1875 9.625 6.1875 9 8 C5.125 7.125 5.125 7.125 4 6 C3.01 7.485 3.01 7.485 2 9 C0.14223235 5.86501708 -0.20140476 3.62528568 0 0 Z " fill="#352729" transform="translate(295,207)"/>
<path d="M0 0 C2.05078125 0.03255208 4.1015625 0.06510417 6.15234375 0.09765625 C6.53453142 1.75380282 6.86629477 3.42222649 7.15234375 5.09765625 C6.15234375 6.09765625 6.15234375 6.09765625 4.0859375 6.1953125 C3.26222656 6.18371094 2.43851562 6.17210938 1.58984375 6.16015625 C0.76355469 6.15113281 -0.06273437 6.14210938 -0.9140625 6.1328125 C-1.55214844 6.12121094 -2.19023437 6.10960938 -2.84765625 6.09765625 C-2.89037725 4.4315372 -2.88829457 2.7638274 -2.84765625 1.09765625 C-1.84765625 0.09765625 -1.84765625 0.09765625 0 0 Z " fill="#626262" transform="translate(344.84765625,103.90234375)"/>
<path d="M0 0 C0.99 0 1.98 0 3 0 C3.33 3.3 3.66 6.6 4 10 C2.02 10.33 0.04 10.66 -2 11 C-2 10.01 -2 9.02 -2 8 C-2.66 8 -3.32 8 -4 8 C-3 5 -3 5 0 3 C0 2.01 0 1.02 0 0 Z " fill="#62545A" transform="translate(291,205)"/>
<path d="M0 0 C0.66 1.32 1.32 2.64 2 4 C2.66 4 3.32 4 4 4 C4.66 3.34 5.32 2.68 6 2 C6.36256858 3.4562672 6.71479793 4.91511185 7.0625 6.375 C7.35833984 7.59316406 7.35833984 7.59316406 7.66015625 8.8359375 C8 11 8 11 7 13 C5.68 13 4.36 13 3 13 C2.49487756 11.39743892 1.99608373 9.79288208 1.5 8.1875 C1.2215625 7.29417969 0.943125 6.40085938 0.65625 5.48046875 C0 3 0 3 0 0 Z " fill="#21181A" transform="translate(299,188)"/>
<path d="M0 0 C2.64 0 5.28 0 8 0 C8.75 1.75 8.75 1.75 9 4 C7.1875 6.25 7.1875 6.25 5 8 C4.34 8 3.68 8 3 8 C0.25624329 5.04518508 0 4.22528092 0 0 Z " fill="#FCEDEF" transform="translate(462,105)"/>
<path d="M0 0 C0.33 0.66 0.66 1.32 1 2 C0.67 2.99 0.34 3.98 0 5 C1.32 4.67 2.64 4.34 4 4 C4 5.65 4 7.3 4 9 C4.66 9.33 5.32 9.66 6 10 C4.35 10.33 2.7 10.66 1 11 C0.67 10.01 0.34 9.02 0 8 C-0.99 8.495 -0.99 8.495 -2 9 C-3.35439668 6.29120665 -3.06501451 3.99066732 -3 1 C-2.01 0.67 -1.02 0.34 0 0 Z " fill="#4D3D44" transform="translate(261,208)"/>
<path d="M0 0 C0.66 0 1.32 0 2 0 C2.33 0.66 2.66 1.32 3 2 C5.32156597 2.40729228 7.6568787 2.74438677 10 3 C10.33 4.32 10.66 5.64 11 7 C7.37 7.33 3.74 7.66 0 8 C0.33 6.68 0.66 5.36 1 4 C0.62092718 1.81296615 0.62092718 1.81296615 0 0 Z " fill="#3A3235" transform="translate(280,241)"/>
<path d="M0 0 C2.625 0.375 2.625 0.375 5 1 C5 2.98 5 4.96 5 7 C3.02 7 1.04 7 -1 7 C-1.625 4.625 -1.625 4.625 -2 2 C-1.34 1.34 -0.68 0.68 0 0 Z " fill="#8A8A8A" transform="translate(350,120)"/>
<path d="M0 0 C2.31 0.33 4.62 0.66 7 1 C7 2.32 7 3.64 7 5 C3.64672361 7.23551759 3.09256343 7.17283528 -0.6875 6.625 C-1.49574219 6.51414063 -2.30398438 6.40328125 -3.13671875 6.2890625 C-4.05904297 6.14597656 -4.05904297 6.14597656 -5 6 C-5 5.67 -5 5.34 -5 5 C-3.865625 4.87625 -2.73125 4.7525 -1.5625 4.625 C0.2009375 4.315625 0.2009375 4.315625 2 4 C2.33 3.34 2.66 2.68 3 2 C2.01 1.67 1.02 1.34 0 1 C0 0.67 0 0.34 0 0 Z " fill="#2C2126" transform="translate(283,201)"/>
<path d="M0 0 C0.99 0.33 1.98 0.66 3 1 C1.63016497 4.16115776 1.0109362 4.9927092 -2 7 C-4.33199388 7.07905064 -6.66832622 7.08798769 -9 7 C-8.67 6.01 -8.34 5.02 -8 4 C-5.10441559 2.5522078 -3.25811062 2 0 2 C0 1.34 0 0.68 0 0 Z " fill="#312529" transform="translate(279,244)"/>
<path d="M0 0 C0.2475 0.61875 0.495 1.2375 0.75 1.875 C2.20628639 4.35068687 3.37812506 4.95125002 6 6 C6 6.66 6 7.32 6 8 C7.65 8.33 9.3 8.66 11 9 C10.67 9.66 10.34 10.32 10 11 C7.8125 11.3125 7.8125 11.3125 5 11 C2.1875 8.875 2.1875 8.875 0 6 C-0.3125 2.6875 -0.3125 2.6875 0 0 Z " fill="#FE5273" transform="translate(459,105)"/>
<path d="M0 0 C2.475 0.495 2.475 0.495 5 1 C5.53122363 2.76774419 6.04964073 4.53934083 6.5625 6.3125 C6.85253906 7.29863281 7.14257812 8.28476563 7.44140625 9.30078125 C8 12 8 12 7 15 C6.87625 14.360625 6.7525 13.72125 6.625 13.0625 C6.41875 12.381875 6.2125 11.70125 6 11 C5.34 10.67 4.68 10.34 4 10 C4 9.34 4 8.68 4 8 C3.34 7.38125 2.68 6.7625 2 6.125 C0 4 0 4 0 0 Z " fill="#3C2C2E" transform="translate(294,186)"/>
<path d="M0 0 C0 1.65 0 3.3 0 5 C-2.64 5 -5.28 5 -8 5 C-8 3.68 -8 2.36 -8 1 C-5.29120665 -0.35439668 -2.99066732 -0.06501451 0 0 Z " fill="#2F2F2F" transform="translate(330,105)"/>
<path d="M0 0 C-2.35968744 2.09749995 -3.54616994 2.96905704 -6.75 3.1875 C-7.86375 3.0946875 -7.86375 3.0946875 -9 3 C-9 3.99 -9 4.98 -9 6 C-9.99 6 -10.98 6 -12 6 C-12.33 5.34 -12.66 4.68 -13 4 C-10.72674319 1.28957842 -9.40421209 0.10723994 -5.9375 -0.8125 C-3 -1 -3 -1 0 0 Z " fill="#41393F" transform="translate(275,184)"/>
<path d="M0 0 C0.99 0.33 1.98 0.66 3 1 C2.48050781 1.44730469 1.96101562 1.89460938 1.42578125 2.35546875 C-2.52679654 5.78201031 -6.35827082 9.24446679 -10 13 C-10 9.28115772 -9.1259934 8.63852271 -6.6875 5.9375 C-5.76517578 4.89916016 -5.76517578 4.89916016 -4.82421875 3.83984375 C-3 2 -3 2 0 0 Z " fill="#CBCBCB" transform="translate(215,92)"/>
<path d="M0 0 C2.0622048 -0.054348 4.12482816 -0.09294961 6.1875 -0.125 C7.33605469 -0.14820312 8.48460937 -0.17140625 9.66796875 -0.1953125 C12.91740372 -0.00484152 15.08660521 0.60639873 18 2 C18 2.66 18 3.32 18 4 C19.32 4.33 20.64 4.66 22 5 C20.4375 5.75 20.4375 5.75 18 6 C16.37722531 5.00646448 14.75603452 4.01009828 13.1484375 2.9921875 C9.0312325 1.09078737 4.47560981 1.16186654 0 1 C0 0.67 0 0.34 0 0 Z " fill="#B0B0B0" transform="translate(341,88)"/>
<path d="M0 0 C0.6875 1.8125 0.6875 1.8125 1 4 C-0.125 5.75 -0.125 5.75 -2 7 C-4.5625 7.3125 -4.5625 7.3125 -7 7 C-7.66 6.34 -8.32 5.68 -9 5 C-9 4.01 -9 3.02 -9 2 C-6.525 2.99 -6.525 2.99 -4 4 C-2.68 2.68 -1.36 1.36 0 0 Z " fill="#EE395B" transform="translate(476,126)"/>
<path d="M0 0 C2.31 0 4.62 0 7 0 C7 0.99 7 1.98 7 3 C7.33 3.99 7.66 4.98 8 6 C5.69 6 3.38 6 1 6 C1.33 4.68 1.66 3.36 2 2 C1.34 2 0.68 2 0 2 C0 1.34 0 0.68 0 0 Z " fill="#35292F" transform="translate(290,216)"/>
<path d="M0 0 C0.66 0.33 1.32 0.66 2 1 C2.4140625 3.06640625 2.4140625 3.06640625 2.625 5.5625 C2.69976562 6.38878906 2.77453125 7.21507812 2.8515625 8.06640625 C2.90054687 8.70449219 2.94953125 9.34257812 3 10 C2.34 10 1.68 10 1 10 C0.67 9.34 0.34 8.68 0 8 C-0.99 7.34 -1.98 6.68 -3 6 C-2.625 3.5625 -2.625 3.5625 -2 1 C-1.34 0.67 -0.68 0.34 0 0 Z " fill="#4C3D40" transform="translate(290,195)"/>
<path d="M0 0 C5.44693314 -0.09688221 10.63904667 -0.12862175 16 1 C12.69857556 3.20094963 11.80630045 3.20410344 8 3.0625 C4.8658849 2.95523118 3.01639328 2.99453557 0 4 C0 2.68 0 1.36 0 0 Z " fill="#3A3A3A" transform="translate(284,122)"/>
<path d="M0 0 C1.1446875 0.2784375 1.1446875 0.2784375 2.3125 0.5625 C5.08967375 1.22819173 5.08967375 1.22819173 8 0 C8 1.65 8 3.3 8 5 C5.36 5 2.72 5 0 5 C0 3.35 0 1.7 0 0 Z " fill="#4D4D4D" transform="translate(231,105)"/>
<path d="M0 0 C0 0.99 0 1.98 0 3 C-3.96 3 -7.92 3 -12 3 C-11 1 -11 1 -9.2578125 0.33203125 C-8.55398438 0.16058594 -7.85015625 -0.01085937 -7.125 -0.1875 C-6.42632812 -0.36667969 -5.72765625 -0.54585937 -5.0078125 -0.73046875 C-3 -1 -3 -1 0 0 Z " fill="#191214" transform="translate(289,248)"/>
<path d="M0 0 C0.99 0.33 1.98 0.66 3 1 C3.08167446 2.41569064 3.13949698 3.83276805 3.1875 5.25 C3.22230469 6.03890625 3.25710938 6.8278125 3.29296875 7.640625 C3 10 3 10 0 14 C0 9.38 0 4.76 0 0 Z " fill="#655E68" transform="translate(262,192)"/>
<path d="M0 0 C2.35448165 2.55068845 2.98327924 3.71017358 3.1875 7.25 C3.125625 8.1575 3.06375 9.065 3 10 C2.67 9.34 2.34 8.68 2 8 C1.34 8 0.68 8 0 8 C-3 3.61538462 -3 3.61538462 -3 1 C-2.01 0.67 -1.02 0.34 0 0 Z " fill="#110A0D" transform="translate(301,184)"/>
<path d="M0 0 C2.31 0 4.62 0 7 0 C6.67 1.65 6.34 3.3 6 5 C4.35 5 2.7 5 1 5 C0.67 3.35 0.34 1.7 0 0 Z " fill="#454545" transform="translate(332,105)"/>
<path d="M0 0 C2.31 0 4.62 0 7 0 C6.67 1.32 6.34 2.64 6 4 C2.7 4 -0.6 4 -4 4 C-3.01 3.67 -2.02 3.34 -1 3 C-0.67 2.01 -0.34 1.02 0 0 Z " fill="#3E3E3E" transform="translate(271,123)"/>
<path d="M0 0 C0.66 0 1.32 0 2 0 C2.25 5.625 2.25 5.625 0 9 C-1.32 9 -2.64 9 -4 9 C-3.71125 8.443125 -3.4225 7.88625 -3.125 7.3125 C-1.9586747 4.91505355 -0.9660119 2.48403061 0 0 Z " fill="#E02C4C" transform="translate(471,105)"/>
<path d="M0 0 C3.55780196 0.60990891 6.6828589 1.5783681 10 3 C10 3.66 10 4.32 10 5 C11.32 5.33 12.64 5.66 14 6 C13.67 6.66 13.34 7.32 13 8 C11.68 7.34 10.36 6.68 9 6 C9 5.34 9 4.68 9 4 C6.36 3.67 3.72 3.34 1 3 C0.67 2.01 0.34 1.02 0 0 Z " fill="#D2D2D2" transform="translate(358,88)"/>
<path d="M0 0 C0 0.99 0 1.98 0 3 C-0.99 3 -1.98 3 -3 3 C-2.94779297 3.90492188 -2.94779297 3.90492188 -2.89453125 4.828125 C-2.67066895 11.4373928 -2.67066895 11.4373928 -4.5 14.5625 C-4.995 15.036875 -5.49 15.51125 -6 16 C-6.04254356 14.00045254 -6.04080783 11.99958364 -6 10 C-5.67 9.67 -5.34 9.34 -5 9 C-4.72046781 6.9412232 -4.55265649 4.88271568 -4.37890625 2.8125 C-4.25386719 2.214375 -4.12882812 1.61625 -4 1 C-2 0 -2 0 0 0 Z " fill="#3B2F35" transform="translate(268,222)"/>
<path d="M0 0 C1.98 0 3.96 0 6 0 C5.6875 1.875 5.6875 1.875 5 4 C4.01 4.66 3.02 5.32 2 6 C1.34 5.34 0.68 4.68 0 4 C0 2.68 0 1.36 0 0 Z " fill="#FDF0F2" transform="translate(469,125)"/>
<path d="M0 0 C2 3 2 3 2 5 C2.66 5 3.32 5 4 5 C4 5.66 4 6.32 4 7 C3.01 7 2.02 7 1 7 C0.34 6.34 -0.32 5.68 -1 5 C-1.99 6.32 -2.98 7.64 -4 9 C-3.38461538 3.46153846 -3.38461538 3.46153846 -1.4375 1.125 C-0.963125 0.75375 -0.48875 0.3825 0 0 Z " fill="#46383D" transform="translate(288,213)"/>
<path d="M0 0 C0.99 0.495 0.99 0.495 2 1 C2 1.99 2 2.98 2 4 C2.66 4 3.32 4 4 4 C5.38226016 6.76452033 5.09525387 9.0461363 5.0625 12.125 C5.05347656 13.22070312 5.04445313 14.31640625 5.03515625 15.4453125 C5.02355469 16.28835937 5.01195312 17.13140625 5 18 C4.67 18 4.34 18 4 18 C4 14.7 4 11.4 4 8 C3.34 8 2.68 8 2 8 C1.34 5.36 0.68 2.72 0 0 Z " fill="#8E8E8E" transform="translate(372,105)"/>
<path d="M0 0 C4 0 4 0 5.921875 1.64453125 C6.52515625 2.35996094 7.1284375 3.07539062 7.75 3.8125 C8.67039062 4.87404297 8.67039062 4.87404297 9.609375 5.95703125 C11 8 11 8 11 11 C7.41695744 8.31271808 4.71330747 5.55536841 2 2 C1.34 1.34 0.68 0.68 0 0 Z " fill="#888888" transform="translate(360,94)"/>
<path d="M0 0 C2.475 0.99 2.475 0.99 5 2 C5 2.99 5 3.98 5 5 C2.69 5 0.38 5 -2 5 C-1.125 1.125 -1.125 1.125 0 0 Z " fill="#2E2427" transform="translate(299,201)"/>
<path d="M0 0 C1.32 0.33 2.64 0.66 4 1 C4 1.99 4 2.98 4 4 C3.01 4 2.02 4 1 4 C0.67 4.99 0.34 5.98 0 7 C-2.0625 7.6875 -2.0625 7.6875 -4 8 C-4 7.34 -4 6.68 -4 6 C-3.01 5.67 -2.02 5.34 -1 5 C-0.67 3.35 -0.34 1.7 0 0 Z " fill="#3D2F33" transform="translate(291,231)"/>
<path d="M0 0 C1.32 0.33 2.64 0.66 4 1 C4 1.99 4 2.98 4 4 C4.99 4 5.98 4 7 4 C6.67 4.99 6.34 5.98 6 7 C4.02 6.01 2.04 5.02 0 4 C0 2.68 0 1.36 0 0 Z " fill="#2B1F21" transform="translate(291,181)"/>
<path d="M0 0 C2.31 0 4.62 0 7 0 C6.67 1.65 6.34 3.3 6 5 C5.34 5 4.68 5 4 5 C4 4.34 4 3.68 4 3 C2.68 3 1.36 3 0 3 C0 2.01 0 1.02 0 0 Z " fill="#4E4E4E" transform="translate(305,123)"/>
<path d="M0 0 C4.455 0.99 4.455 0.99 9 2 C7.71034824 3.37562854 6.37310707 4.70766393 5 6 C4.34 6 3.68 6 3 6 C2.01 4.02 1.02 2.04 0 0 Z " fill="#35292D" transform="translate(277,235)"/>
<path d="M0 0 C0.99 0.66 1.98 1.32 3 2 C2.67 3.65 2.34 5.3 2 7 C0.35 6.67 -1.3 6.34 -3 6 C-2.34 5.34 -1.68 4.68 -1 4 C-0.3574765 1.93125966 -0.3574765 1.93125966 0 0 Z " fill="#13090C" transform="translate(298,212)"/>
<path d="M0 0 C0.66 0.33 1.32 0.66 2 1 C1.375 2.9375 1.375 2.9375 0 5 C-3.125 5.75 -3.125 5.75 -6 6 C-5 3 -5 3 -2.5625 1.25 C-1.716875 0.8375 -0.87125 0.425 0 0 Z " fill="#4C3D42" transform="translate(290,205)"/>
<path d="M0 0 C2.97 0.495 2.97 0.495 6 1 C6 2.65 6 4.3 6 6 C4.35 5.67 2.7 5.34 1 5 C0.67 3.35 0.34 1.7 0 0 Z " fill="#575757" transform="translate(238,121)"/>
<path d="M0 0 C0 0.99 0 1.98 0 3 C-2.64 2.67 -5.28 2.34 -8 2 C-7 0 -7 0 -5.125 -0.6875 C-3 -1 -3 -1 0 0 Z " fill="#7D7A7B" transform="translate(291,245)"/>
<path d="M0 0 C-3.75 2 -3.75 2 -6 2 C-6 2.99 -6 3.98 -6 5 C-7.65 4.67 -9.3 4.34 -11 4 C-10.34 3.67 -9.68 3.34 -9 3 C-9 2.34 -9 1.68 -9 1 C-5.92677456 0.08941469 -3.19902639 -0.08886184 0 0 Z " fill="#10080B" transform="translate(294,240)"/>
<path d="M0 0 C1.65 0 3.3 0 5 0 C4.01 0.495 4.01 0.495 3 1 C3.20625 1.5775 3.4125 2.155 3.625 2.75 C4.08661261 5.51967567 3.42944945 6.64561267 2 9 C0.14223235 5.86501708 -0.20140476 3.62528568 0 0 Z " fill="#302123" transform="translate(295,207)"/>
<path d="M0 0 C0.99 0.33 1.98 0.66 3 1 C2.67 2.32 2.34 3.64 2 5 C0.68 4.67 -0.64 4.34 -2 4 C-2 3.01 -2 2.02 -2 1 C-1.34 0.67 -0.68 0.34 0 0 Z " fill="#0D0D0D" transform="translate(351,121)"/>
<path d="M0 0 C-1.65 0.66 -3.3 1.32 -5 2 C-5 2.66 -5 3.32 -5 4 C-6.32 3.67 -7.64 3.34 -9 3 C-6.07868595 -0.19953443 -4.37453972 -1.45817991 0 0 Z " fill="#3B2E32" transform="translate(279,247)"/>
<path d="M0 0 C2.31 0 4.62 0 7 0 C6.67 1.32 6.34 2.64 6 4 C3.03 3.505 3.03 3.505 0 3 C0 2.01 0 1.02 0 0 Z " fill="#878787" transform="translate(333,123)"/>
<path d="M0 0 C1.65 0 3.3 0 5 0 C5 1.32 5 2.64 5 4 C3.35 4 1.7 4 0 4 C0 2.68 0 1.36 0 0 Z " fill="#6A6A6A" transform="translate(245,122)"/>
<path d="M0 0 C1.32 0.33 2.64 0.66 4 1 C4.625 2.875 4.625 2.875 5 5 C4.34 5.66 3.68 6.32 3 7 C2.01 4.69 1.02 2.38 0 0 Z " fill="#45383E" transform="translate(266,225)"/>
<path d="M0 0 C1.98 0 3.96 0 6 0 C6 0.99 6 1.98 6 3 C4.02 3 2.04 3 0 3 C0 2.01 0 1.02 0 0 Z " fill="#403438" transform="translate(285,182)"/>
<path d="M0 0 C1.98 0.66 3.96 1.32 6 2 C5.67 2.66 5.34 3.32 5 4 C3.35 4 1.7 4 0 4 C0 2.68 0 1.36 0 0 Z " fill="#FA496A" transform="translate(464,112)"/>
<path d="M0 0 C5.625 -0.25 5.625 -0.25 9 2 C8.67 2.99 8.34 3.98 8 5 C7.01 4.67 6.02 4.34 5 4 C5 3.01 5 2.02 5 1 C3.35 1 1.7 1 0 1 C0 0.67 0 0.34 0 0 Z " fill="#FE4D6F" transform="translate(463,101)"/>
</svg>
